%TF.GenerationSoftware,KiCad,Pcbnew,10.0.4*%
%TF.CreationDate,2026-07-25T14:44:29-07:00*%
%TF.ProjectId,hackPad,6861636b-5061-4642-9e6b-696361645f70,rev?*%
%TF.SameCoordinates,Original*%
%TF.FileFunction,Copper,L2,Bot*%
%TF.FilePolarity,Positive*%
%FSLAX46Y46*%
G04 Gerber Fmt 4.6, Leading zero omitted, Abs format (unit mm)*
G04 Created by KiCad (PCBNEW 10.0.4) date 2026-07-25 14:44:29*
%MOMM*%
%LPD*%
G01*
G04 APERTURE LIST*
%TA.AperFunction,ComponentPad*%
%ADD10R,3.500000X1.700000*%
%TD*%
%TA.AperFunction,ComponentPad*%
%ADD11O,3.600000X1.700000*%
%TD*%
%TA.AperFunction,ComponentPad*%
%ADD12O,3.700000X1.700000*%
%TD*%
%TA.AperFunction,ComponentPad*%
%ADD13C,2.200000*%
%TD*%
G04 APERTURE END LIST*
D10*
%TO.P,U1,1,PA02_A0_D0_1*%
%TO.N,unconnected-(U1-PA02_A0_D0-Pad1)*%
X103130000Y-48895000D03*
D11*
%TO.P,U1,2,PA4_A1_D1_2*%
%TO.N,unconnected-(U1-PA4_A1_D1-Pad2)*%
X103130000Y-51435000D03*
%TO.P,U1,3,PA10_A2_D2_3*%
%TO.N,unconnected-(U1-PA10_A2_D2-Pad3)*%
X103130000Y-53975000D03*
%TO.P,U1,4,PA11_A3_D3_4*%
%TO.N,unconnected-(U1-PA11_A3_D3-Pad4)*%
X103130000Y-56515000D03*
%TO.P,U1,5,PA8_A4_D4_SDA_5*%
%TO.N,unconnected-(U1-PA8_A4_D4_SDA-Pad5)*%
X103130000Y-59055000D03*
%TO.P,U1,6,PA9_A5_D5_SCL_6*%
%TO.N,unconnected-(U1-PA9_A5_D5_SCL-Pad6)*%
X103130000Y-61595000D03*
%TO.P,U1,7,PB08_A6_D6_TX_7*%
%TO.N,unconnected-(U1-PB08_A6_D6_TX-Pad7)*%
X103130000Y-64135000D03*
%TO.P,U1,8,PB09_A7_D7_RX_8*%
%TO.N,Net-(U1-PB09_A7_D7_RX)*%
X120380000Y-64135000D03*
%TO.P,U1,9,PA7_A8_D8_SCK_9*%
%TO.N,Net-(U1-PA7_A8_D8_SCK)*%
X120380000Y-61595000D03*
%TO.P,U1,10,PA5_A9_D9_MISO_10*%
%TO.N,Net-(U1-PA5_A9_D9_MISO)*%
X120380000Y-59055000D03*
D12*
%TO.P,U1,11,PA6_A10_D10_MOSI_11*%
%TO.N,Net-(U1-PA6_A10_D10_MOSI)*%
X120380000Y-56515000D03*
%TO.P,U1,12,3V3_12*%
%TO.N,unconnected-(U1-3V3-Pad12)*%
X120380000Y-53975000D03*
%TO.P,U1,13,GND_13*%
%TO.N,GND*%
X120380000Y-51435000D03*
%TO.P,U1,14,5V_14*%
%TO.N,unconnected-(U1-5V-Pad14)*%
X120380000Y-48895000D03*
%TD*%
D13*
%TO.P,SW4,1,1_1*%
%TO.N,Net-(U1-PB09_A7_D7_RX)*%
X134620000Y-53340000D03*
%TO.P,SW4,2,2_2*%
%TO.N,GND*%
X128270000Y-55880000D03*
%TD*%
%TO.P,SW2,1,1_1*%
%TO.N,Net-(U1-PA5_A9_D9_MISO)*%
X134620000Y-72390000D03*
%TO.P,SW2,2,2_2*%
%TO.N,GND*%
X128270000Y-74930000D03*
%TD*%
%TO.P,SW3,1,1_1*%
%TO.N,Net-(U1-PA7_A8_D8_SCK)*%
X153670000Y-72390000D03*
%TO.P,SW3,2,2_2*%
%TO.N,GND*%
X147320000Y-74930000D03*
%TD*%
%TO.P,SW1,1,1_1*%
%TO.N,Net-(U1-PA6_A10_D10_MOSI)*%
X115570000Y-72390000D03*
%TO.P,SW1,2,2_2*%
%TO.N,GND*%
X109220000Y-74930000D03*
%TD*%
%TA.AperFunction,Conductor*%
%TO.N,GND*%
G36*
X163907539Y-46494185D02*
G01*
X163953294Y-46546989D01*
X163964500Y-46598500D01*
X163964500Y-90180500D01*
X163944815Y-90247539D01*
X163892011Y-90293294D01*
X163840500Y-90304500D01*
X100319500Y-90304500D01*
X100252461Y-90284815D01*
X100206706Y-90232011D01*
X100195500Y-90180500D01*
X100195500Y-77383389D01*
X106849500Y-77383389D01*
X106849500Y-77556611D01*
X106876598Y-77727701D01*
X106930127Y-77892445D01*
X107008768Y-78046788D01*
X107110586Y-78186928D01*
X107233072Y-78309414D01*
X107373212Y-78411232D01*
X107527555Y-78489873D01*
X107692299Y-78543402D01*
X107863389Y-78570500D01*
X107863390Y-78570500D01*
X108036610Y-78570500D01*
X108036611Y-78570500D01*
X108207701Y-78543402D01*
X108372445Y-78489873D01*
X108526788Y-78411232D01*
X108666928Y-78309414D01*
X108789414Y-78186928D01*
X108891232Y-78046788D01*
X108969873Y-77892445D01*
X109023402Y-77727701D01*
X109050500Y-77556611D01*
X109050500Y-77383389D01*
X109040854Y-77322486D01*
X110779500Y-77322486D01*
X110779500Y-77617513D01*
X110811571Y-77861113D01*
X110818007Y-77909993D01*
X110892212Y-78186930D01*
X110894361Y-78194951D01*
X110894364Y-78194961D01*
X111007254Y-78467500D01*
X111007258Y-78467510D01*
X111154761Y-78722993D01*
X111334352Y-78957040D01*
X111334358Y-78957047D01*
X111542952Y-79165641D01*
X111542959Y-79165647D01*
X111777006Y-79345238D01*
X112032489Y-79492741D01*
X112032490Y-79492741D01*
X112032493Y-79492743D01*
X112305048Y-79605639D01*
X112590007Y-79681993D01*
X112882494Y-79720500D01*
X112882501Y-79720500D01*
X113177499Y-79720500D01*
X113177506Y-79720500D01*
X113469993Y-79681993D01*
X113754952Y-79605639D01*
X114027507Y-79492743D01*
X114282994Y-79345238D01*
X114517042Y-79165646D01*
X114725646Y-78957042D01*
X114905238Y-78722994D01*
X115052743Y-78467507D01*
X115165639Y-78194952D01*
X115241993Y-77909993D01*
X115280500Y-77617506D01*
X115280500Y-77383389D01*
X117009500Y-77383389D01*
X117009500Y-77556611D01*
X117036598Y-77727701D01*
X117090127Y-77892445D01*
X117168768Y-78046788D01*
X117270586Y-78186928D01*
X117393072Y-78309414D01*
X117533212Y-78411232D01*
X117687555Y-78489873D01*
X117852299Y-78543402D01*
X118023389Y-78570500D01*
X118023390Y-78570500D01*
X118196610Y-78570500D01*
X118196611Y-78570500D01*
X118367701Y-78543402D01*
X118532445Y-78489873D01*
X118686788Y-78411232D01*
X118826928Y-78309414D01*
X118949414Y-78186928D01*
X119051232Y-78046788D01*
X119129873Y-77892445D01*
X119183402Y-77727701D01*
X119210500Y-77556611D01*
X119210500Y-77383389D01*
X125899500Y-77383389D01*
X125899500Y-77556611D01*
X125926598Y-77727701D01*
X125980127Y-77892445D01*
X126058768Y-78046788D01*
X126160586Y-78186928D01*
X126283072Y-78309414D01*
X126423212Y-78411232D01*
X126577555Y-78489873D01*
X126742299Y-78543402D01*
X126913389Y-78570500D01*
X126913390Y-78570500D01*
X127086610Y-78570500D01*
X127086611Y-78570500D01*
X127257701Y-78543402D01*
X127422445Y-78489873D01*
X127576788Y-78411232D01*
X127716928Y-78309414D01*
X127839414Y-78186928D01*
X127941232Y-78046788D01*
X128019873Y-77892445D01*
X128073402Y-77727701D01*
X128100500Y-77556611D01*
X128100500Y-77383389D01*
X128090854Y-77322486D01*
X129829500Y-77322486D01*
X129829500Y-77617513D01*
X129861571Y-77861113D01*
X129868007Y-77909993D01*
X129942212Y-78186930D01*
X129944361Y-78194951D01*
X129944364Y-78194961D01*
X130057254Y-78467500D01*
X130057258Y-78467510D01*
X130204761Y-78722993D01*
X130384352Y-78957040D01*
X130384358Y-78957047D01*
X130592952Y-79165641D01*
X130592959Y-79165647D01*
X130827006Y-79345238D01*
X131082489Y-79492741D01*
X131082490Y-79492741D01*
X131082493Y-79492743D01*
X131355048Y-79605639D01*
X131640007Y-79681993D01*
X131932494Y-79720500D01*
X131932501Y-79720500D01*
X132227499Y-79720500D01*
X132227506Y-79720500D01*
X132519993Y-79681993D01*
X132804952Y-79605639D01*
X133077507Y-79492743D01*
X133332994Y-79345238D01*
X133567042Y-79165646D01*
X133775646Y-78957042D01*
X133955238Y-78722994D01*
X134102743Y-78467507D01*
X134215639Y-78194952D01*
X134291993Y-77909993D01*
X134330500Y-77617506D01*
X134330500Y-77383389D01*
X136059500Y-77383389D01*
X136059500Y-77556611D01*
X136086598Y-77727701D01*
X136140127Y-77892445D01*
X136218768Y-78046788D01*
X136320586Y-78186928D01*
X136443072Y-78309414D01*
X136583212Y-78411232D01*
X136737555Y-78489873D01*
X136902299Y-78543402D01*
X137073389Y-78570500D01*
X137073390Y-78570500D01*
X137246610Y-78570500D01*
X137246611Y-78570500D01*
X137417701Y-78543402D01*
X137582445Y-78489873D01*
X137736788Y-78411232D01*
X137876928Y-78309414D01*
X137999414Y-78186928D01*
X138101232Y-78046788D01*
X138179873Y-77892445D01*
X138233402Y-77727701D01*
X138260500Y-77556611D01*
X138260500Y-77383389D01*
X144949500Y-77383389D01*
X144949500Y-77556611D01*
X144976598Y-77727701D01*
X145030127Y-77892445D01*
X145108768Y-78046788D01*
X145210586Y-78186928D01*
X145333072Y-78309414D01*
X145473212Y-78411232D01*
X145627555Y-78489873D01*
X145792299Y-78543402D01*
X145963389Y-78570500D01*
X145963390Y-78570500D01*
X146136610Y-78570500D01*
X146136611Y-78570500D01*
X146307701Y-78543402D01*
X146472445Y-78489873D01*
X146626788Y-78411232D01*
X146766928Y-78309414D01*
X146889414Y-78186928D01*
X146991232Y-78046788D01*
X147069873Y-77892445D01*
X147123402Y-77727701D01*
X147150500Y-77556611D01*
X147150500Y-77383389D01*
X147140854Y-77322486D01*
X148879500Y-77322486D01*
X148879500Y-77617513D01*
X148911571Y-77861113D01*
X148918007Y-77909993D01*
X148992212Y-78186930D01*
X148994361Y-78194951D01*
X148994364Y-78194961D01*
X149107254Y-78467500D01*
X149107258Y-78467510D01*
X149254761Y-78722993D01*
X149434352Y-78957040D01*
X149434358Y-78957047D01*
X149642952Y-79165641D01*
X149642959Y-79165647D01*
X149877006Y-79345238D01*
X150132489Y-79492741D01*
X150132490Y-79492741D01*
X150132493Y-79492743D01*
X150405048Y-79605639D01*
X150690007Y-79681993D01*
X150982494Y-79720500D01*
X150982501Y-79720500D01*
X151277499Y-79720500D01*
X151277506Y-79720500D01*
X151569993Y-79681993D01*
X151854952Y-79605639D01*
X152127507Y-79492743D01*
X152382994Y-79345238D01*
X152617042Y-79165646D01*
X152825646Y-78957042D01*
X153005238Y-78722994D01*
X153152743Y-78467507D01*
X153265639Y-78194952D01*
X153341993Y-77909993D01*
X153380500Y-77617506D01*
X153380500Y-77383389D01*
X155109500Y-77383389D01*
X155109500Y-77556611D01*
X155136598Y-77727701D01*
X155190127Y-77892445D01*
X155268768Y-78046788D01*
X155370586Y-78186928D01*
X155493072Y-78309414D01*
X155633212Y-78411232D01*
X155787555Y-78489873D01*
X155952299Y-78543402D01*
X156123389Y-78570500D01*
X156123390Y-78570500D01*
X156296610Y-78570500D01*
X156296611Y-78570500D01*
X156467701Y-78543402D01*
X156632445Y-78489873D01*
X156786788Y-78411232D01*
X156926928Y-78309414D01*
X157049414Y-78186928D01*
X157151232Y-78046788D01*
X157229873Y-77892445D01*
X157283402Y-77727701D01*
X157310500Y-77556611D01*
X157310500Y-77383389D01*
X157283402Y-77212299D01*
X157229873Y-77047555D01*
X157151232Y-76893212D01*
X157049414Y-76753072D01*
X156926928Y-76630586D01*
X156786788Y-76528768D01*
X156632445Y-76450127D01*
X156467701Y-76396598D01*
X156467699Y-76396597D01*
X156467698Y-76396597D01*
X156336271Y-76375781D01*
X156296611Y-76369500D01*
X156123389Y-76369500D01*
X156083728Y-76375781D01*
X155952302Y-76396597D01*
X155787552Y-76450128D01*
X155633211Y-76528768D01*
X155577115Y-76569525D01*
X155493072Y-76630586D01*
X155493070Y-76630588D01*
X155493069Y-76630588D01*
X155370588Y-76753069D01*
X155370588Y-76753070D01*
X155370586Y-76753072D01*
X155326859Y-76813256D01*
X155268768Y-76893211D01*
X155190128Y-77047552D01*
X155136597Y-77212302D01*
X155109500Y-77383389D01*
X153380500Y-77383389D01*
X153380500Y-77322494D01*
X153341993Y-77030007D01*
X153265639Y-76745048D01*
X153152743Y-76472493D01*
X153102604Y-76385650D01*
X153005238Y-76217006D01*
X152825647Y-75982959D01*
X152825641Y-75982952D01*
X152617047Y-75774358D01*
X152617040Y-75774352D01*
X152382993Y-75594761D01*
X152127510Y-75447258D01*
X152127500Y-75447254D01*
X151854961Y-75334364D01*
X151854954Y-75334362D01*
X151854952Y-75334361D01*
X151569993Y-75258007D01*
X151521113Y-75251571D01*
X151277513Y-75219500D01*
X151277506Y-75219500D01*
X150982494Y-75219500D01*
X150982486Y-75219500D01*
X150704085Y-75256153D01*
X150690007Y-75258007D01*
X150515861Y-75304669D01*
X150405048Y-75334361D01*
X150405038Y-75334364D01*
X150132499Y-75447254D01*
X150132489Y-75447258D01*
X149877006Y-75594761D01*
X149642959Y-75774352D01*
X149642952Y-75774358D01*
X149434358Y-75982952D01*
X149434352Y-75982959D01*
X149254761Y-76217006D01*
X149107258Y-76472489D01*
X149107254Y-76472499D01*
X148994364Y-76745038D01*
X148994361Y-76745048D01*
X148918008Y-77030004D01*
X148918006Y-77030015D01*
X148879500Y-77322486D01*
X147140854Y-77322486D01*
X147123402Y-77212299D01*
X147069873Y-77047555D01*
X146991232Y-76893212D01*
X146889414Y-76753072D01*
X146836882Y-76700540D01*
X146803397Y-76639217D01*
X146808381Y-76569525D01*
X146850253Y-76513592D01*
X146915717Y-76489175D01*
X146943961Y-76490386D01*
X147194072Y-76530000D01*
X147445928Y-76530000D01*
X147694669Y-76490602D01*
X147934184Y-76412780D01*
X148158575Y-76298446D01*
X148158581Y-76298442D01*
X148260697Y-76224250D01*
X148260698Y-76224250D01*
X147644025Y-75607578D01*
X147675258Y-75594641D01*
X147798097Y-75512563D01*
X147902563Y-75408097D01*
X147984641Y-75285258D01*
X147997578Y-75254025D01*
X148614250Y-75870698D01*
X148614250Y-75870697D01*
X148688442Y-75768581D01*
X148688446Y-75768575D01*
X148802780Y-75544184D01*
X148880602Y-75304669D01*
X148920000Y-75055928D01*
X148920000Y-74804071D01*
X148880602Y-74555330D01*
X148802780Y-74315815D01*
X148688442Y-74091416D01*
X148614250Y-73989301D01*
X148614250Y-73989300D01*
X147997577Y-74605973D01*
X147984641Y-74574742D01*
X147902563Y-74451903D01*
X147798097Y-74347437D01*
X147675258Y-74265359D01*
X147644024Y-74252421D01*
X148260698Y-73635748D01*
X148158583Y-73561557D01*
X147934184Y-73447219D01*
X147694669Y-73369397D01*
X147445928Y-73330000D01*
X147194072Y-73330000D01*
X146945330Y-73369397D01*
X146705815Y-73447219D01*
X146481413Y-73561559D01*
X146379301Y-73635747D01*
X146379300Y-73635748D01*
X146995974Y-74252421D01*
X146964742Y-74265359D01*
X146841903Y-74347437D01*
X146737437Y-74451903D01*
X146655359Y-74574742D01*
X146642421Y-74605974D01*
X146025748Y-73989300D01*
X146025747Y-73989301D01*
X145951559Y-74091413D01*
X145837219Y-74315815D01*
X145759397Y-74555330D01*
X145720000Y-74804071D01*
X145720000Y-75055928D01*
X145759397Y-75304669D01*
X145837219Y-75544184D01*
X145951557Y-75768583D01*
X146025748Y-75870697D01*
X146025748Y-75870698D01*
X146642421Y-75254024D01*
X146655359Y-75285258D01*
X146737437Y-75408097D01*
X146841903Y-75512563D01*
X146964742Y-75594641D01*
X146995974Y-75607577D01*
X146379300Y-76224250D01*
X146381598Y-76253449D01*
X146367233Y-76321827D01*
X146318181Y-76371583D01*
X146250016Y-76386921D01*
X146238583Y-76385650D01*
X146136611Y-76369500D01*
X145963389Y-76369500D01*
X145923728Y-76375781D01*
X145792302Y-76396597D01*
X145627552Y-76450128D01*
X145473211Y-76528768D01*
X145417115Y-76569525D01*
X145333072Y-76630586D01*
X145333070Y-76630588D01*
X145333069Y-76630588D01*
X145210588Y-76753069D01*
X145210588Y-76753070D01*
X145210586Y-76753072D01*
X145166859Y-76813256D01*
X145108768Y-76893211D01*
X145030128Y-77047552D01*
X144976597Y-77212302D01*
X144949500Y-77383389D01*
X138260500Y-77383389D01*
X138233402Y-77212299D01*
X138179873Y-77047555D01*
X138101232Y-76893212D01*
X137999414Y-76753072D01*
X137876928Y-76630586D01*
X137736788Y-76528768D01*
X137582445Y-76450127D01*
X137417701Y-76396598D01*
X137417699Y-76396597D01*
X137417698Y-76396597D01*
X137286271Y-76375781D01*
X137246611Y-76369500D01*
X137073389Y-76369500D01*
X137033728Y-76375781D01*
X136902302Y-76396597D01*
X136737552Y-76450128D01*
X136583211Y-76528768D01*
X136527115Y-76569525D01*
X136443072Y-76630586D01*
X136443070Y-76630588D01*
X136443069Y-76630588D01*
X136320588Y-76753069D01*
X136320588Y-76753070D01*
X136320586Y-76753072D01*
X136276859Y-76813256D01*
X136218768Y-76893211D01*
X136140128Y-77047552D01*
X136086597Y-77212302D01*
X136059500Y-77383389D01*
X134330500Y-77383389D01*
X134330500Y-77322494D01*
X134291993Y-77030007D01*
X134215639Y-76745048D01*
X134102743Y-76472493D01*
X134052604Y-76385650D01*
X133955238Y-76217006D01*
X133775647Y-75982959D01*
X133775641Y-75982952D01*
X133567047Y-75774358D01*
X133567040Y-75774352D01*
X133332993Y-75594761D01*
X133077510Y-75447258D01*
X133077500Y-75447254D01*
X132804961Y-75334364D01*
X132804954Y-75334362D01*
X132804952Y-75334361D01*
X132519993Y-75258007D01*
X132471113Y-75251571D01*
X132227513Y-75219500D01*
X132227506Y-75219500D01*
X131932494Y-75219500D01*
X131932486Y-75219500D01*
X131654085Y-75256153D01*
X131640007Y-75258007D01*
X131465861Y-75304669D01*
X131355048Y-75334361D01*
X131355038Y-75334364D01*
X131082499Y-75447254D01*
X131082489Y-75447258D01*
X130827006Y-75594761D01*
X130592959Y-75774352D01*
X130592952Y-75774358D01*
X130384358Y-75982952D01*
X130384352Y-75982959D01*
X130204761Y-76217006D01*
X130057258Y-76472489D01*
X130057254Y-76472499D01*
X129944364Y-76745038D01*
X129944361Y-76745048D01*
X129868008Y-77030004D01*
X129868006Y-77030015D01*
X129829500Y-77322486D01*
X128090854Y-77322486D01*
X128073402Y-77212299D01*
X128019873Y-77047555D01*
X127941232Y-76893212D01*
X127839414Y-76753072D01*
X127786882Y-76700540D01*
X127753397Y-76639217D01*
X127758381Y-76569525D01*
X127800253Y-76513592D01*
X127865717Y-76489175D01*
X127893961Y-76490386D01*
X128144072Y-76530000D01*
X128395928Y-76530000D01*
X128644669Y-76490602D01*
X128884184Y-76412780D01*
X129108575Y-76298446D01*
X129108581Y-76298442D01*
X129210697Y-76224250D01*
X129210698Y-76224250D01*
X128594025Y-75607578D01*
X128625258Y-75594641D01*
X128748097Y-75512563D01*
X128852563Y-75408097D01*
X128934641Y-75285258D01*
X128947577Y-75254025D01*
X129564250Y-75870698D01*
X129564250Y-75870697D01*
X129638442Y-75768581D01*
X129638446Y-75768575D01*
X129752780Y-75544184D01*
X129830602Y-75304669D01*
X129870000Y-75055928D01*
X129870000Y-74804071D01*
X129830602Y-74555330D01*
X129752780Y-74315815D01*
X129638442Y-74091416D01*
X129564250Y-73989301D01*
X129564250Y-73989300D01*
X128947577Y-74605973D01*
X128934641Y-74574742D01*
X128852563Y-74451903D01*
X128748097Y-74347437D01*
X128625258Y-74265359D01*
X128594024Y-74252421D01*
X129210698Y-73635748D01*
X129108583Y-73561557D01*
X128884184Y-73447219D01*
X128644669Y-73369397D01*
X128395928Y-73330000D01*
X128144072Y-73330000D01*
X127895330Y-73369397D01*
X127655815Y-73447219D01*
X127431413Y-73561559D01*
X127329301Y-73635747D01*
X127329300Y-73635748D01*
X127945974Y-74252421D01*
X127914742Y-74265359D01*
X127791903Y-74347437D01*
X127687437Y-74451903D01*
X127605359Y-74574742D01*
X127592421Y-74605974D01*
X126975748Y-73989300D01*
X126975747Y-73989301D01*
X126901559Y-74091413D01*
X126787219Y-74315815D01*
X126709397Y-74555330D01*
X126670000Y-74804071D01*
X126670000Y-75055928D01*
X126709397Y-75304669D01*
X126787219Y-75544184D01*
X126901557Y-75768583D01*
X126975748Y-75870697D01*
X126975748Y-75870698D01*
X127592421Y-75254024D01*
X127605359Y-75285258D01*
X127687437Y-75408097D01*
X127791903Y-75512563D01*
X127914742Y-75594641D01*
X127945974Y-75607577D01*
X127329300Y-76224250D01*
X127331598Y-76253449D01*
X127317233Y-76321827D01*
X127268181Y-76371583D01*
X127200016Y-76386921D01*
X127188583Y-76385650D01*
X127086611Y-76369500D01*
X126913389Y-76369500D01*
X126873728Y-76375781D01*
X126742302Y-76396597D01*
X126577552Y-76450128D01*
X126423211Y-76528768D01*
X126367115Y-76569525D01*
X126283072Y-76630586D01*
X126283070Y-76630588D01*
X126283069Y-76630588D01*
X126160588Y-76753069D01*
X126160588Y-76753070D01*
X126160586Y-76753072D01*
X126116859Y-76813256D01*
X126058768Y-76893211D01*
X125980128Y-77047552D01*
X125926597Y-77212302D01*
X125899500Y-77383389D01*
X119210500Y-77383389D01*
X119183402Y-77212299D01*
X119129873Y-77047555D01*
X119051232Y-76893212D01*
X118949414Y-76753072D01*
X118826928Y-76630586D01*
X118686788Y-76528768D01*
X118532445Y-76450127D01*
X118367701Y-76396598D01*
X118367699Y-76396597D01*
X118367698Y-76396597D01*
X118236271Y-76375781D01*
X118196611Y-76369500D01*
X118023389Y-76369500D01*
X117983728Y-76375781D01*
X117852302Y-76396597D01*
X117687552Y-76450128D01*
X117533211Y-76528768D01*
X117477115Y-76569525D01*
X117393072Y-76630586D01*
X117393070Y-76630588D01*
X117393069Y-76630588D01*
X117270588Y-76753069D01*
X117270588Y-76753070D01*
X117270586Y-76753072D01*
X117226859Y-76813256D01*
X117168768Y-76893211D01*
X117090128Y-77047552D01*
X117036597Y-77212302D01*
X117009500Y-77383389D01*
X115280500Y-77383389D01*
X115280500Y-77322494D01*
X115241993Y-77030007D01*
X115165639Y-76745048D01*
X115052743Y-76472493D01*
X115002604Y-76385650D01*
X114905238Y-76217006D01*
X114725647Y-75982959D01*
X114725641Y-75982952D01*
X114517047Y-75774358D01*
X114517040Y-75774352D01*
X114282993Y-75594761D01*
X114027510Y-75447258D01*
X114027500Y-75447254D01*
X113754961Y-75334364D01*
X113754954Y-75334362D01*
X113754952Y-75334361D01*
X113469993Y-75258007D01*
X113421113Y-75251571D01*
X113177513Y-75219500D01*
X113177506Y-75219500D01*
X112882494Y-75219500D01*
X112882486Y-75219500D01*
X112604085Y-75256153D01*
X112590007Y-75258007D01*
X112415861Y-75304669D01*
X112305048Y-75334361D01*
X112305038Y-75334364D01*
X112032499Y-75447254D01*
X112032489Y-75447258D01*
X111777006Y-75594761D01*
X111542959Y-75774352D01*
X111542952Y-75774358D01*
X111334358Y-75982952D01*
X111334352Y-75982959D01*
X111154761Y-76217006D01*
X111007258Y-76472489D01*
X111007254Y-76472499D01*
X110894364Y-76745038D01*
X110894361Y-76745048D01*
X110818008Y-77030004D01*
X110818006Y-77030015D01*
X110779500Y-77322486D01*
X109040854Y-77322486D01*
X109023402Y-77212299D01*
X108969873Y-77047555D01*
X108891232Y-76893212D01*
X108789414Y-76753072D01*
X108736882Y-76700540D01*
X108703397Y-76639217D01*
X108708381Y-76569525D01*
X108750253Y-76513592D01*
X108815717Y-76489175D01*
X108843961Y-76490386D01*
X109094072Y-76530000D01*
X109345928Y-76530000D01*
X109594669Y-76490602D01*
X109834184Y-76412780D01*
X110058575Y-76298446D01*
X110058581Y-76298442D01*
X110160697Y-76224250D01*
X110160698Y-76224250D01*
X109544025Y-75607578D01*
X109575258Y-75594641D01*
X109698097Y-75512563D01*
X109802563Y-75408097D01*
X109884641Y-75285258D01*
X109897577Y-75254025D01*
X110514250Y-75870698D01*
X110514250Y-75870697D01*
X110588442Y-75768581D01*
X110588446Y-75768575D01*
X110702780Y-75544184D01*
X110780602Y-75304669D01*
X110820000Y-75055928D01*
X110820000Y-74804071D01*
X110780602Y-74555330D01*
X110702780Y-74315815D01*
X110588442Y-74091416D01*
X110514250Y-73989301D01*
X110514250Y-73989300D01*
X109897577Y-74605973D01*
X109884641Y-74574742D01*
X109802563Y-74451903D01*
X109698097Y-74347437D01*
X109575258Y-74265359D01*
X109544024Y-74252421D01*
X110160698Y-73635748D01*
X110058583Y-73561557D01*
X109834184Y-73447219D01*
X109594669Y-73369397D01*
X109345928Y-73330000D01*
X109094072Y-73330000D01*
X108845330Y-73369397D01*
X108605815Y-73447219D01*
X108381413Y-73561559D01*
X108279301Y-73635747D01*
X108279300Y-73635748D01*
X108895974Y-74252421D01*
X108864742Y-74265359D01*
X108741903Y-74347437D01*
X108637437Y-74451903D01*
X108555359Y-74574742D01*
X108542421Y-74605974D01*
X107925748Y-73989300D01*
X107925747Y-73989301D01*
X107851559Y-74091413D01*
X107737219Y-74315815D01*
X107659397Y-74555330D01*
X107620000Y-74804071D01*
X107620000Y-75055928D01*
X107659397Y-75304669D01*
X107737219Y-75544184D01*
X107851557Y-75768583D01*
X107925748Y-75870697D01*
X107925748Y-75870698D01*
X108542421Y-75254024D01*
X108555359Y-75285258D01*
X108637437Y-75408097D01*
X108741903Y-75512563D01*
X108864742Y-75594641D01*
X108895974Y-75607577D01*
X108279300Y-76224250D01*
X108281598Y-76253449D01*
X108267233Y-76321827D01*
X108218181Y-76371583D01*
X108150016Y-76386921D01*
X108138583Y-76385650D01*
X108036611Y-76369500D01*
X107863389Y-76369500D01*
X107823728Y-76375781D01*
X107692302Y-76396597D01*
X107527552Y-76450128D01*
X107373211Y-76528768D01*
X107317115Y-76569525D01*
X107233072Y-76630586D01*
X107233070Y-76630588D01*
X107233069Y-76630588D01*
X107110588Y-76753069D01*
X107110588Y-76753070D01*
X107110586Y-76753072D01*
X107066859Y-76813256D01*
X107008768Y-76893211D01*
X106930128Y-77047552D01*
X106876597Y-77212302D01*
X106849500Y-77383389D01*
X100195500Y-77383389D01*
X100195500Y-72264038D01*
X113969500Y-72264038D01*
X113969500Y-72515961D01*
X114008910Y-72764785D01*
X114086760Y-73004383D01*
X114201132Y-73228848D01*
X114349201Y-73432649D01*
X114349205Y-73432654D01*
X114527345Y-73610794D01*
X114527350Y-73610798D01*
X114705117Y-73739952D01*
X114731155Y-73758870D01*
X114874184Y-73831747D01*
X114955616Y-73873239D01*
X114955618Y-73873239D01*
X114955621Y-73873241D01*
X115195215Y-73951090D01*
X115444038Y-73990500D01*
X115444039Y-73990500D01*
X115695961Y-73990500D01*
X115695962Y-73990500D01*
X115944785Y-73951090D01*
X116184379Y-73873241D01*
X116408845Y-73758870D01*
X116612656Y-73610793D01*
X116790793Y-73432656D01*
X116938870Y-73228845D01*
X117053241Y-73004379D01*
X117131090Y-72764785D01*
X117170500Y-72515962D01*
X117170500Y-72264038D01*
X133019500Y-72264038D01*
X133019500Y-72515961D01*
X133058910Y-72764785D01*
X133136760Y-73004383D01*
X133251132Y-73228848D01*
X133399201Y-73432649D01*
X133399205Y-73432654D01*
X133577345Y-73610794D01*
X133577350Y-73610798D01*
X133755117Y-73739952D01*
X133781155Y-73758870D01*
X133924184Y-73831747D01*
X134005616Y-73873239D01*
X134005618Y-73873239D01*
X134005621Y-73873241D01*
X134245215Y-73951090D01*
X134494038Y-73990500D01*
X134494039Y-73990500D01*
X134745961Y-73990500D01*
X134745962Y-73990500D01*
X134994785Y-73951090D01*
X135234379Y-73873241D01*
X135458845Y-73758870D01*
X135662656Y-73610793D01*
X135840793Y-73432656D01*
X135988870Y-73228845D01*
X136103241Y-73004379D01*
X136181090Y-72764785D01*
X136220500Y-72515962D01*
X136220500Y-72264038D01*
X152069500Y-72264038D01*
X152069500Y-72515961D01*
X152108910Y-72764785D01*
X152186760Y-73004383D01*
X152301132Y-73228848D01*
X152449201Y-73432649D01*
X152449205Y-73432654D01*
X152627345Y-73610794D01*
X152627350Y-73610798D01*
X152805117Y-73739952D01*
X152831155Y-73758870D01*
X152974184Y-73831747D01*
X153055616Y-73873239D01*
X153055618Y-73873239D01*
X153055621Y-73873241D01*
X153295215Y-73951090D01*
X153544038Y-73990500D01*
X153544039Y-73990500D01*
X153795961Y-73990500D01*
X153795962Y-73990500D01*
X154044785Y-73951090D01*
X154284379Y-73873241D01*
X154508845Y-73758870D01*
X154712656Y-73610793D01*
X154890793Y-73432656D01*
X155038870Y-73228845D01*
X155153241Y-73004379D01*
X155231090Y-72764785D01*
X155270500Y-72515962D01*
X155270500Y-72264038D01*
X155231090Y-72015215D01*
X155153241Y-71775621D01*
X155153239Y-71775618D01*
X155153239Y-71775616D01*
X155111747Y-71694184D01*
X155038870Y-71551155D01*
X155019952Y-71525117D01*
X154890798Y-71347350D01*
X154890794Y-71347345D01*
X154712654Y-71169205D01*
X154712649Y-71169201D01*
X154508848Y-71021132D01*
X154508847Y-71021131D01*
X154508845Y-71021130D01*
X154438747Y-70985413D01*
X154284383Y-70906760D01*
X154044785Y-70828910D01*
X153795962Y-70789500D01*
X153544038Y-70789500D01*
X153419626Y-70809205D01*
X153295214Y-70828910D01*
X153055616Y-70906760D01*
X152831151Y-71021132D01*
X152627350Y-71169201D01*
X152627345Y-71169205D01*
X152449205Y-71347345D01*
X152449201Y-71347350D01*
X152301132Y-71551151D01*
X152186760Y-71775616D01*
X152108910Y-72015214D01*
X152069500Y-72264038D01*
X136220500Y-72264038D01*
X136181090Y-72015215D01*
X136103241Y-71775621D01*
X136103239Y-71775618D01*
X136103239Y-71775616D01*
X136061747Y-71694184D01*
X135988870Y-71551155D01*
X135969952Y-71525117D01*
X135840798Y-71347350D01*
X135840794Y-71347345D01*
X135662654Y-71169205D01*
X135662649Y-71169201D01*
X135458848Y-71021132D01*
X135458847Y-71021131D01*
X135458845Y-71021130D01*
X135388747Y-70985413D01*
X135234383Y-70906760D01*
X134994785Y-70828910D01*
X134745962Y-70789500D01*
X134494038Y-70789500D01*
X134369626Y-70809205D01*
X134245214Y-70828910D01*
X134005616Y-70906760D01*
X133781151Y-71021132D01*
X133577350Y-71169201D01*
X133577345Y-71169205D01*
X133399205Y-71347345D01*
X133399201Y-71347350D01*
X133251132Y-71551151D01*
X133136760Y-71775616D01*
X133058910Y-72015214D01*
X133019500Y-72264038D01*
X117170500Y-72264038D01*
X117131090Y-72015215D01*
X117053241Y-71775621D01*
X117053239Y-71775618D01*
X117053239Y-71775616D01*
X117011747Y-71694184D01*
X116938870Y-71551155D01*
X116919952Y-71525117D01*
X116790798Y-71347350D01*
X116790794Y-71347345D01*
X116612654Y-71169205D01*
X116612649Y-71169201D01*
X116408848Y-71021132D01*
X116408847Y-71021131D01*
X116408845Y-71021130D01*
X116338747Y-70985413D01*
X116184383Y-70906760D01*
X115944785Y-70828910D01*
X115695962Y-70789500D01*
X115444038Y-70789500D01*
X115319626Y-70809205D01*
X115195214Y-70828910D01*
X114955616Y-70906760D01*
X114731151Y-71021132D01*
X114527350Y-71169201D01*
X114527345Y-71169205D01*
X114349205Y-71347345D01*
X114349201Y-71347350D01*
X114201132Y-71551151D01*
X114086760Y-71775616D01*
X114008910Y-72015214D01*
X113969500Y-72264038D01*
X100195500Y-72264038D01*
X100195500Y-51328713D01*
X100829500Y-51328713D01*
X100829500Y-51541287D01*
X100862754Y-51751243D01*
X100897038Y-51856759D01*
X100928444Y-51953414D01*
X101024951Y-52142820D01*
X101149890Y-52314786D01*
X101300213Y-52465109D01*
X101472182Y-52590050D01*
X101480946Y-52594516D01*
X101531742Y-52642491D01*
X101548536Y-52710312D01*
X101525998Y-52776447D01*
X101480946Y-52815484D01*
X101472182Y-52819949D01*
X101300213Y-52944890D01*
X101149890Y-53095213D01*
X101024951Y-53267179D01*
X100928444Y-53456585D01*
X100862753Y-53658760D01*
X100853880Y-53714785D01*
X100829500Y-53868713D01*
X100829500Y-54081287D01*
X100862754Y-54291243D01*
X100892455Y-54382654D01*
X100928444Y-54493414D01*
X101024951Y-54682820D01*
X101149890Y-54854786D01*
X101300213Y-55005109D01*
X101472182Y-55130050D01*
X101480946Y-55134516D01*
X101531742Y-55182491D01*
X101548536Y-55250312D01*
X101525998Y-55316447D01*
X101480946Y-55355484D01*
X101472182Y-55359949D01*
X101300213Y-55484890D01*
X101149890Y-55635213D01*
X101024951Y-55807179D01*
X100928444Y-55996585D01*
X100862753Y-56198760D01*
X100829500Y-56408713D01*
X100829500Y-56621286D01*
X100861083Y-56820698D01*
X100862754Y-56831243D01*
X100895803Y-56932958D01*
X100928444Y-57033414D01*
X101024951Y-57222820D01*
X101149890Y-57394786D01*
X101300213Y-57545109D01*
X101472182Y-57670050D01*
X101480946Y-57674516D01*
X101531742Y-57722491D01*
X101548536Y-57790312D01*
X101525998Y-57856447D01*
X101480946Y-57895484D01*
X101472182Y-57899949D01*
X101300213Y-58024890D01*
X101149890Y-58175213D01*
X101024951Y-58347179D01*
X100928444Y-58536585D01*
X100862753Y-58738760D01*
X100829500Y-58948713D01*
X100829500Y-59161287D01*
X100862754Y-59371243D01*
X100885053Y-59439873D01*
X100928444Y-59573414D01*
X101024951Y-59762820D01*
X101149890Y-59934786D01*
X101300213Y-60085109D01*
X101472182Y-60210050D01*
X101480946Y-60214516D01*
X101531742Y-60262491D01*
X101548536Y-60330312D01*
X101525998Y-60396447D01*
X101480946Y-60435484D01*
X101472182Y-60439949D01*
X101300213Y-60564890D01*
X101149890Y-60715213D01*
X101024951Y-60887179D01*
X100928444Y-61076585D01*
X100862753Y-61278760D01*
X100829500Y-61488713D01*
X100829500Y-61701286D01*
X100862753Y-61911239D01*
X100928444Y-62113414D01*
X101024951Y-62302820D01*
X101149890Y-62474786D01*
X101300213Y-62625109D01*
X101472182Y-62750050D01*
X101480946Y-62754516D01*
X101531742Y-62802491D01*
X101548536Y-62870312D01*
X101525998Y-62936447D01*
X101480946Y-62975484D01*
X101472182Y-62979949D01*
X101300213Y-63104890D01*
X101149890Y-63255213D01*
X101024951Y-63427179D01*
X100928444Y-63616585D01*
X100862753Y-63818760D01*
X100829500Y-64028713D01*
X100829500Y-64241286D01*
X100862753Y-64451239D01*
X100928444Y-64653414D01*
X101024951Y-64842820D01*
X101149890Y-65014786D01*
X101300213Y-65165109D01*
X101472179Y-65290048D01*
X101472181Y-65290049D01*
X101472184Y-65290051D01*
X101661588Y-65386557D01*
X101863757Y-65452246D01*
X102073713Y-65485500D01*
X102073714Y-65485500D01*
X104186286Y-65485500D01*
X104186287Y-65485500D01*
X104396243Y-65452246D01*
X104598412Y-65386557D01*
X104787816Y-65290051D01*
X104809789Y-65274086D01*
X104959786Y-65165109D01*
X104959788Y-65165106D01*
X104959792Y-65165104D01*
X105110104Y-65014792D01*
X105110106Y-65014788D01*
X105110109Y-65014786D01*
X105235048Y-64842820D01*
X105235047Y-64842820D01*
X105235051Y-64842816D01*
X105331557Y-64653412D01*
X105397246Y-64451243D01*
X105430500Y-64241287D01*
X105430500Y-64028713D01*
X105397246Y-63818757D01*
X105331557Y-63616588D01*
X105235051Y-63427184D01*
X105235049Y-63427181D01*
X105235048Y-63427179D01*
X105110109Y-63255213D01*
X104959786Y-63104890D01*
X104787820Y-62979951D01*
X104787115Y-62979591D01*
X104779054Y-62975485D01*
X104728259Y-62927512D01*
X104711463Y-62859692D01*
X104733999Y-62793556D01*
X104779054Y-62754515D01*
X104787816Y-62750051D01*
X104809789Y-62734086D01*
X104959786Y-62625109D01*
X104959788Y-62625106D01*
X104959792Y-62625104D01*
X105110104Y-62474792D01*
X105110106Y-62474788D01*
X105110109Y-62474786D01*
X105235048Y-62302820D01*
X105235047Y-62302820D01*
X105235051Y-62302816D01*
X105331557Y-62113412D01*
X105397246Y-61911243D01*
X105430500Y-61701287D01*
X105430500Y-61488713D01*
X105397246Y-61278757D01*
X105331557Y-61076588D01*
X105235051Y-60887184D01*
X105235049Y-60887181D01*
X105235048Y-60887179D01*
X105110109Y-60715213D01*
X104959786Y-60564890D01*
X104787820Y-60439951D01*
X104787115Y-60439591D01*
X104779054Y-60435485D01*
X104728259Y-60387512D01*
X104711463Y-60319692D01*
X104733999Y-60253556D01*
X104779054Y-60214515D01*
X104787816Y-60210051D01*
X104809789Y-60194086D01*
X104959786Y-60085109D01*
X104959788Y-60085106D01*
X104959792Y-60085104D01*
X105110104Y-59934792D01*
X105110106Y-59934788D01*
X105110109Y-59934786D01*
X105235048Y-59762820D01*
X105235047Y-59762820D01*
X105235051Y-59762816D01*
X105331557Y-59573412D01*
X105397246Y-59371243D01*
X105430500Y-59161287D01*
X105430500Y-58948713D01*
X105397246Y-58738757D01*
X105331557Y-58536588D01*
X105235051Y-58347184D01*
X105235049Y-58347181D01*
X105235048Y-58347179D01*
X105110109Y-58175213D01*
X104959786Y-58024890D01*
X104787820Y-57899951D01*
X104787115Y-57899591D01*
X104779054Y-57895485D01*
X104728259Y-57847512D01*
X104711463Y-57779692D01*
X104733999Y-57713556D01*
X104779054Y-57674515D01*
X104787816Y-57670051D01*
X104814671Y-57650540D01*
X104959786Y-57545109D01*
X104959788Y-57545106D01*
X104959792Y-57545104D01*
X105110104Y-57394792D01*
X105110106Y-57394788D01*
X105110109Y-57394786D01*
X105235048Y-57222820D01*
X105235047Y-57222820D01*
X105235051Y-57222816D01*
X105331557Y-57033412D01*
X105397246Y-56831243D01*
X105430500Y-56621287D01*
X105430500Y-56408713D01*
X105397246Y-56198757D01*
X105331557Y-55996588D01*
X105235051Y-55807184D01*
X105235049Y-55807181D01*
X105235048Y-55807179D01*
X105110109Y-55635213D01*
X104959786Y-55484890D01*
X104787820Y-55359951D01*
X104787115Y-55359591D01*
X104779054Y-55355485D01*
X104728259Y-55307512D01*
X104711463Y-55239692D01*
X104733999Y-55173556D01*
X104779054Y-55134515D01*
X104787816Y-55130051D01*
X104809789Y-55114086D01*
X104959786Y-55005109D01*
X104959788Y-55005106D01*
X104959792Y-55005104D01*
X105110104Y-54854792D01*
X105110106Y-54854788D01*
X105110109Y-54854786D01*
X105235048Y-54682820D01*
X105235047Y-54682820D01*
X105235051Y-54682816D01*
X105331557Y-54493412D01*
X105397246Y-54291243D01*
X105430500Y-54081287D01*
X105430500Y-53868713D01*
X105397246Y-53658757D01*
X105331557Y-53456588D01*
X105235051Y-53267184D01*
X105235049Y-53267181D01*
X105235048Y-53267179D01*
X105110109Y-53095213D01*
X104959786Y-52944890D01*
X104787820Y-52819951D01*
X104787115Y-52819591D01*
X104779054Y-52815485D01*
X104728259Y-52767512D01*
X104711463Y-52699692D01*
X104733999Y-52633556D01*
X104779054Y-52594515D01*
X104787816Y-52590051D01*
X104910172Y-52501155D01*
X104959786Y-52465109D01*
X104959788Y-52465106D01*
X104959792Y-52465104D01*
X105110104Y-52314792D01*
X105110106Y-52314788D01*
X105110109Y-52314786D01*
X105235048Y-52142820D01*
X105235047Y-52142820D01*
X105235051Y-52142816D01*
X105331557Y-51953412D01*
X105397246Y-51751243D01*
X105430500Y-51541287D01*
X105430500Y-51328713D01*
X105397246Y-51118757D01*
X105331557Y-50916588D01*
X105235051Y-50727184D01*
X105235049Y-50727181D01*
X105235048Y-50727179D01*
X105110109Y-50555213D01*
X104982986Y-50428090D01*
X104949501Y-50366767D01*
X104954485Y-50297075D01*
X104996357Y-50241142D01*
X105027335Y-50224227D01*
X105122326Y-50188798D01*
X105122326Y-50188797D01*
X105122331Y-50188796D01*
X105237546Y-50102546D01*
X105323796Y-49987331D01*
X105374091Y-49852483D01*
X105380500Y-49792873D01*
X105380499Y-48788713D01*
X118029500Y-48788713D01*
X118029500Y-49001286D01*
X118062753Y-49211239D01*
X118128444Y-49413414D01*
X118224951Y-49602820D01*
X118349890Y-49774786D01*
X118500213Y-49925109D01*
X118672179Y-50050048D01*
X118672181Y-50050049D01*
X118672184Y-50050051D01*
X118681493Y-50054794D01*
X118732290Y-50102766D01*
X118749087Y-50170587D01*
X118726552Y-50236722D01*
X118681502Y-50275762D01*
X118672443Y-50280378D01*
X118500540Y-50405272D01*
X118500535Y-50405276D01*
X118350276Y-50555535D01*
X118350272Y-50555540D01*
X118225379Y-50727442D01*
X118128904Y-50916782D01*
X118063242Y-51118870D01*
X118063242Y-51118873D01*
X118052769Y-51185000D01*
X118946988Y-51185000D01*
X118914075Y-51242007D01*
X118880000Y-51369174D01*
X118880000Y-51500826D01*
X118914075Y-51627993D01*
X118946988Y-51685000D01*
X118052769Y-51685000D01*
X118063242Y-51751126D01*
X118063242Y-51751129D01*
X118128904Y-51953217D01*
X118225379Y-52142557D01*
X118350272Y-52314459D01*
X118350276Y-52314464D01*
X118500535Y-52464723D01*
X118500540Y-52464727D01*
X118672444Y-52589622D01*
X118681495Y-52594234D01*
X118732292Y-52642208D01*
X118749087Y-52710029D01*
X118726550Y-52776164D01*
X118681499Y-52815202D01*
X118672182Y-52819949D01*
X118500213Y-52944890D01*
X118349890Y-53095213D01*
X118224951Y-53267179D01*
X118128444Y-53456585D01*
X118062753Y-53658760D01*
X118053880Y-53714785D01*
X118029500Y-53868713D01*
X118029500Y-54081287D01*
X118062754Y-54291243D01*
X118092455Y-54382654D01*
X118128444Y-54493414D01*
X118224951Y-54682820D01*
X118349890Y-54854786D01*
X118500213Y-55005109D01*
X118672182Y-55130050D01*
X118680946Y-55134516D01*
X118731742Y-55182491D01*
X118748536Y-55250312D01*
X118725998Y-55316447D01*
X118680946Y-55355484D01*
X118672182Y-55359949D01*
X118500213Y-55484890D01*
X118349890Y-55635213D01*
X118224951Y-55807179D01*
X118128444Y-55996585D01*
X118062753Y-56198760D01*
X118029500Y-56408713D01*
X118029500Y-56621286D01*
X118061083Y-56820698D01*
X118062754Y-56831243D01*
X118095803Y-56932958D01*
X118128444Y-57033414D01*
X118224951Y-57222820D01*
X118349890Y-57394786D01*
X118500213Y-57545109D01*
X118672182Y-57670050D01*
X118707268Y-57687927D01*
X118758064Y-57735900D01*
X118774860Y-57803721D01*
X118752323Y-57869856D01*
X118723859Y-57898730D01*
X118550214Y-58024890D01*
X118550209Y-58024894D01*
X118399890Y-58175213D01*
X118274951Y-58347179D01*
X118178444Y-58536585D01*
X118112753Y-58738760D01*
X118079500Y-58948713D01*
X118079500Y-59161287D01*
X118112754Y-59371243D01*
X118135053Y-59439873D01*
X118178444Y-59573414D01*
X118274951Y-59762820D01*
X118399890Y-59934786D01*
X118550213Y-60085109D01*
X118722182Y-60210050D01*
X118730946Y-60214516D01*
X118781742Y-60262491D01*
X118798536Y-60330312D01*
X118775998Y-60396447D01*
X118730946Y-60435484D01*
X118722182Y-60439949D01*
X118550213Y-60564890D01*
X118399890Y-60715213D01*
X118274951Y-60887179D01*
X118178444Y-61076585D01*
X118112753Y-61278760D01*
X118079500Y-61488713D01*
X118079500Y-61701286D01*
X118112753Y-61911239D01*
X118178444Y-62113414D01*
X118274951Y-62302820D01*
X118399890Y-62474786D01*
X118550213Y-62625109D01*
X118722182Y-62750050D01*
X118730946Y-62754516D01*
X118781742Y-62802491D01*
X118798536Y-62870312D01*
X118775998Y-62936447D01*
X118730946Y-62975484D01*
X118722182Y-62979949D01*
X118550213Y-63104890D01*
X118399890Y-63255213D01*
X118274951Y-63427179D01*
X118178444Y-63616585D01*
X118112753Y-63818760D01*
X118079500Y-64028713D01*
X118079500Y-64241286D01*
X118112753Y-64451239D01*
X118178444Y-64653414D01*
X118274951Y-64842820D01*
X118399890Y-65014786D01*
X118550213Y-65165109D01*
X118722179Y-65290048D01*
X118722181Y-65290049D01*
X118722184Y-65290051D01*
X118911588Y-65386557D01*
X119113757Y-65452246D01*
X119323713Y-65485500D01*
X119323714Y-65485500D01*
X121436286Y-65485500D01*
X121436287Y-65485500D01*
X121646243Y-65452246D01*
X121848412Y-65386557D01*
X122037816Y-65290051D01*
X122059789Y-65274086D01*
X122209786Y-65165109D01*
X122209788Y-65165106D01*
X122209792Y-65165104D01*
X122360104Y-65014792D01*
X122360106Y-65014788D01*
X122360109Y-65014786D01*
X122485048Y-64842820D01*
X122485047Y-64842820D01*
X122485051Y-64842816D01*
X122581557Y-64653412D01*
X122647246Y-64451243D01*
X122680500Y-64241287D01*
X122680500Y-64028713D01*
X122647246Y-63818757D01*
X122581557Y-63616588D01*
X122485051Y-63427184D01*
X122485049Y-63427181D01*
X122485048Y-63427179D01*
X122360109Y-63255213D01*
X122209786Y-63104890D01*
X122037820Y-62979951D01*
X122037115Y-62979591D01*
X122029054Y-62975485D01*
X121978259Y-62927512D01*
X121961463Y-62859692D01*
X121983999Y-62793556D01*
X122029054Y-62754515D01*
X122037816Y-62750051D01*
X122059789Y-62734086D01*
X122209786Y-62625109D01*
X122209788Y-62625106D01*
X122209792Y-62625104D01*
X122360104Y-62474792D01*
X122360106Y-62474788D01*
X122360109Y-62474786D01*
X122485048Y-62302820D01*
X122485047Y-62302820D01*
X122485051Y-62302816D01*
X122581557Y-62113412D01*
X122647246Y-61911243D01*
X122680500Y-61701287D01*
X122680500Y-61488713D01*
X122647246Y-61278757D01*
X122581557Y-61076588D01*
X122485051Y-60887184D01*
X122485049Y-60887181D01*
X122485048Y-60887179D01*
X122360109Y-60715213D01*
X122209786Y-60564890D01*
X122037820Y-60439951D01*
X122037115Y-60439591D01*
X122029054Y-60435485D01*
X121978259Y-60387512D01*
X121961463Y-60319692D01*
X121983999Y-60253556D01*
X122029054Y-60214515D01*
X122037816Y-60210051D01*
X122059789Y-60194086D01*
X122209786Y-60085109D01*
X122209788Y-60085106D01*
X122209792Y-60085104D01*
X122360104Y-59934792D01*
X122360106Y-59934788D01*
X122360109Y-59934786D01*
X122485048Y-59762820D01*
X122485047Y-59762820D01*
X122485051Y-59762816D01*
X122581557Y-59573412D01*
X122647246Y-59371243D01*
X122680500Y-59161287D01*
X122680500Y-58948713D01*
X122647246Y-58738757D01*
X122581557Y-58536588D01*
X122485051Y-58347184D01*
X122485050Y-58347182D01*
X122475029Y-58333389D01*
X125899500Y-58333389D01*
X125899500Y-58506611D01*
X125926598Y-58677701D01*
X125980127Y-58842445D01*
X126058768Y-58996788D01*
X126160586Y-59136928D01*
X126283072Y-59259414D01*
X126423212Y-59361232D01*
X126577555Y-59439873D01*
X126742299Y-59493402D01*
X126913389Y-59520500D01*
X126913390Y-59520500D01*
X127086610Y-59520500D01*
X127086611Y-59520500D01*
X127257701Y-59493402D01*
X127422445Y-59439873D01*
X127576788Y-59361232D01*
X127716928Y-59259414D01*
X127839414Y-59136928D01*
X127941232Y-58996788D01*
X128019873Y-58842445D01*
X128073402Y-58677701D01*
X128100500Y-58506611D01*
X128100500Y-58333389D01*
X128090854Y-58272486D01*
X129829500Y-58272486D01*
X129829500Y-58567513D01*
X129852046Y-58738757D01*
X129868007Y-58859993D01*
X129942212Y-59136930D01*
X129944361Y-59144951D01*
X129944364Y-59144961D01*
X130057254Y-59417500D01*
X130057258Y-59417510D01*
X130204761Y-59672993D01*
X130384352Y-59907040D01*
X130384358Y-59907047D01*
X130592952Y-60115641D01*
X130592959Y-60115647D01*
X130827006Y-60295238D01*
X131082489Y-60442741D01*
X131082490Y-60442741D01*
X131082493Y-60442743D01*
X131355048Y-60555639D01*
X131640007Y-60631993D01*
X131932494Y-60670500D01*
X131932501Y-60670500D01*
X132227499Y-60670500D01*
X132227506Y-60670500D01*
X132519993Y-60631993D01*
X132804952Y-60555639D01*
X133077507Y-60442743D01*
X133332994Y-60295238D01*
X133567042Y-60115646D01*
X133775646Y-59907042D01*
X133955238Y-59672994D01*
X134102743Y-59417507D01*
X134215639Y-59144952D01*
X134291993Y-58859993D01*
X134330500Y-58567506D01*
X134330500Y-58333389D01*
X136059500Y-58333389D01*
X136059500Y-58506611D01*
X136086598Y-58677701D01*
X136140127Y-58842445D01*
X136218768Y-58996788D01*
X136320586Y-59136928D01*
X136443072Y-59259414D01*
X136583212Y-59361232D01*
X136737555Y-59439873D01*
X136902299Y-59493402D01*
X137073389Y-59520500D01*
X137073390Y-59520500D01*
X137246610Y-59520500D01*
X137246611Y-59520500D01*
X137417701Y-59493402D01*
X137582445Y-59439873D01*
X137736788Y-59361232D01*
X137876928Y-59259414D01*
X137999414Y-59136928D01*
X138101232Y-58996788D01*
X138179873Y-58842445D01*
X138233402Y-58677701D01*
X138260500Y-58506611D01*
X138260500Y-58333389D01*
X138233402Y-58162299D01*
X138179873Y-57997555D01*
X138101232Y-57843212D01*
X137999414Y-57703072D01*
X137876928Y-57580586D01*
X137736788Y-57478768D01*
X137582445Y-57400127D01*
X137417701Y-57346598D01*
X137417699Y-57346597D01*
X137417698Y-57346597D01*
X137286271Y-57325781D01*
X137246611Y-57319500D01*
X137073389Y-57319500D01*
X137033728Y-57325781D01*
X136902302Y-57346597D01*
X136737552Y-57400128D01*
X136583211Y-57478768D01*
X136527115Y-57519525D01*
X136443072Y-57580586D01*
X136443070Y-57580588D01*
X136443069Y-57580588D01*
X136320588Y-57703069D01*
X136320588Y-57703070D01*
X136320586Y-57703072D01*
X136296735Y-57735900D01*
X136218768Y-57843211D01*
X136140128Y-57997552D01*
X136086597Y-58162302D01*
X136059500Y-58333389D01*
X134330500Y-58333389D01*
X134330500Y-58272494D01*
X134291993Y-57980007D01*
X134215639Y-57695048D01*
X134212689Y-57687927D01*
X134126053Y-57478768D01*
X134102743Y-57422493D01*
X134086746Y-57394786D01*
X133955238Y-57167006D01*
X133775647Y-56932959D01*
X133775641Y-56932952D01*
X133567047Y-56724358D01*
X133567040Y-56724352D01*
X133332993Y-56544761D01*
X133077510Y-56397258D01*
X133077500Y-56397254D01*
X132804961Y-56284364D01*
X132804954Y-56284362D01*
X132804952Y-56284361D01*
X132519993Y-56208007D01*
X132449756Y-56198760D01*
X132227513Y-56169500D01*
X132227506Y-56169500D01*
X131932494Y-56169500D01*
X131932486Y-56169500D01*
X131654085Y-56206153D01*
X131640007Y-56208007D01*
X131465861Y-56254669D01*
X131355048Y-56284361D01*
X131355038Y-56284364D01*
X131082499Y-56397254D01*
X131082489Y-56397258D01*
X130827006Y-56544761D01*
X130592959Y-56724352D01*
X130592952Y-56724358D01*
X130384358Y-56932952D01*
X130384352Y-56932959D01*
X130204761Y-57167006D01*
X130057258Y-57422489D01*
X130057254Y-57422499D01*
X129944364Y-57695038D01*
X129944361Y-57695048D01*
X129904611Y-57843400D01*
X129868008Y-57980004D01*
X129868006Y-57980015D01*
X129829500Y-58272486D01*
X128090854Y-58272486D01*
X128073402Y-58162299D01*
X128019873Y-57997555D01*
X127941232Y-57843212D01*
X127839414Y-57703072D01*
X127786882Y-57650540D01*
X127753397Y-57589217D01*
X127758381Y-57519525D01*
X127800253Y-57463592D01*
X127865717Y-57439175D01*
X127893961Y-57440386D01*
X128144072Y-57480000D01*
X128395928Y-57480000D01*
X128644669Y-57440602D01*
X128884184Y-57362780D01*
X129108575Y-57248446D01*
X129108581Y-57248442D01*
X129210697Y-57174250D01*
X129210698Y-57174250D01*
X128594025Y-56557578D01*
X128625258Y-56544641D01*
X128748097Y-56462563D01*
X128852563Y-56358097D01*
X128934641Y-56235258D01*
X128947578Y-56204025D01*
X129564250Y-56820698D01*
X129564250Y-56820697D01*
X129638442Y-56718581D01*
X129638446Y-56718575D01*
X129752780Y-56494184D01*
X129830602Y-56254669D01*
X129870000Y-56005928D01*
X129870000Y-55754071D01*
X129830602Y-55505330D01*
X129752780Y-55265815D01*
X129638442Y-55041416D01*
X129564250Y-54939301D01*
X129564250Y-54939300D01*
X128947577Y-55555973D01*
X128934641Y-55524742D01*
X128852563Y-55401903D01*
X128748097Y-55297437D01*
X128625258Y-55215359D01*
X128594024Y-55202421D01*
X129210698Y-54585748D01*
X129108583Y-54511557D01*
X128884184Y-54397219D01*
X128644669Y-54319397D01*
X128395928Y-54280000D01*
X128144072Y-54280000D01*
X127895330Y-54319397D01*
X127655815Y-54397219D01*
X127431413Y-54511559D01*
X127329301Y-54585747D01*
X127329300Y-54585748D01*
X127945974Y-55202421D01*
X127914742Y-55215359D01*
X127791903Y-55297437D01*
X127687437Y-55401903D01*
X127605359Y-55524742D01*
X127592421Y-55555974D01*
X126975748Y-54939300D01*
X126975747Y-54939301D01*
X126901559Y-55041413D01*
X126787219Y-55265815D01*
X126709397Y-55505330D01*
X126670000Y-55754071D01*
X126670000Y-56005928D01*
X126709397Y-56254669D01*
X126787219Y-56494184D01*
X126901557Y-56718583D01*
X126975748Y-56820697D01*
X126975748Y-56820698D01*
X127592421Y-56204024D01*
X127605359Y-56235258D01*
X127687437Y-56358097D01*
X127791903Y-56462563D01*
X127914742Y-56544641D01*
X127945974Y-56557577D01*
X127329300Y-57174250D01*
X127331598Y-57203449D01*
X127317233Y-57271827D01*
X127268181Y-57321583D01*
X127200016Y-57336921D01*
X127188583Y-57335650D01*
X127086611Y-57319500D01*
X126913389Y-57319500D01*
X126873728Y-57325781D01*
X126742302Y-57346597D01*
X126577552Y-57400128D01*
X126423211Y-57478768D01*
X126367115Y-57519525D01*
X126283072Y-57580586D01*
X126283070Y-57580588D01*
X126283069Y-57580588D01*
X126160588Y-57703069D01*
X126160588Y-57703070D01*
X126160586Y-57703072D01*
X126136735Y-57735900D01*
X126058768Y-57843211D01*
X125980128Y-57997552D01*
X125926597Y-58162302D01*
X125899500Y-58333389D01*
X122475029Y-58333389D01*
X122360109Y-58175213D01*
X122209790Y-58024894D01*
X122209785Y-58024890D01*
X122036140Y-57898730D01*
X121993474Y-57843400D01*
X121987495Y-57773787D01*
X122020100Y-57711992D01*
X122052732Y-57687927D01*
X122087816Y-57670051D01*
X122087815Y-57670051D01*
X122087818Y-57670050D01*
X122259786Y-57545109D01*
X122259788Y-57545106D01*
X122259792Y-57545104D01*
X122410104Y-57394792D01*
X122410106Y-57394788D01*
X122410109Y-57394786D01*
X122535048Y-57222820D01*
X122535047Y-57222820D01*
X122535051Y-57222816D01*
X122631557Y-57033412D01*
X122697246Y-56831243D01*
X122730500Y-56621287D01*
X122730500Y-56408713D01*
X122697246Y-56198757D01*
X122631557Y-55996588D01*
X122535051Y-55807184D01*
X122535049Y-55807180D01*
X122410109Y-55635213D01*
X122259786Y-55484890D01*
X122087820Y-55359951D01*
X122087115Y-55359591D01*
X122079054Y-55355485D01*
X122028259Y-55307512D01*
X122011463Y-55239692D01*
X122033999Y-55173556D01*
X122079054Y-55134515D01*
X122087816Y-55130051D01*
X122109789Y-55114086D01*
X122259786Y-55005109D01*
X122259788Y-55005106D01*
X122259792Y-55005104D01*
X122410104Y-54854792D01*
X122410106Y-54854788D01*
X122410109Y-54854786D01*
X122535048Y-54682820D01*
X122535047Y-54682820D01*
X122535051Y-54682816D01*
X122631557Y-54493412D01*
X122697246Y-54291243D01*
X122730500Y-54081287D01*
X122730500Y-53868713D01*
X122697246Y-53658757D01*
X122631557Y-53456588D01*
X122535051Y-53267184D01*
X122535049Y-53267180D01*
X122496439Y-53214038D01*
X133019500Y-53214038D01*
X133019500Y-53465961D01*
X133058910Y-53714785D01*
X133136760Y-53954383D01*
X133251132Y-54178848D01*
X133399201Y-54382649D01*
X133399205Y-54382654D01*
X133577345Y-54560794D01*
X133577350Y-54560798D01*
X133745295Y-54682816D01*
X133781155Y-54708870D01*
X133924184Y-54781747D01*
X134005616Y-54823239D01*
X134005618Y-54823239D01*
X134005621Y-54823241D01*
X134245215Y-54901090D01*
X134494038Y-54940500D01*
X134494039Y-54940500D01*
X134745961Y-54940500D01*
X134745962Y-54940500D01*
X134994785Y-54901090D01*
X135234379Y-54823241D01*
X135458845Y-54708870D01*
X135662656Y-54560793D01*
X135840793Y-54382656D01*
X135988870Y-54178845D01*
X136103241Y-53954379D01*
X136181090Y-53714785D01*
X136220500Y-53465962D01*
X136220500Y-53214038D01*
X136181090Y-52965215D01*
X136103241Y-52725621D01*
X136103239Y-52725618D01*
X136103239Y-52725616D01*
X136051717Y-52624500D01*
X135988870Y-52501155D01*
X135962681Y-52465109D01*
X135840798Y-52297350D01*
X135840794Y-52297345D01*
X135662654Y-52119205D01*
X135662649Y-52119201D01*
X135458848Y-51971132D01*
X135458847Y-51971131D01*
X135458845Y-51971130D01*
X135387936Y-51935000D01*
X135234383Y-51856760D01*
X134994785Y-51778910D01*
X134745962Y-51739500D01*
X134494038Y-51739500D01*
X134369626Y-51759205D01*
X134245214Y-51778910D01*
X134005616Y-51856760D01*
X133781151Y-51971132D01*
X133577350Y-52119201D01*
X133577345Y-52119205D01*
X133399205Y-52297345D01*
X133399201Y-52297350D01*
X133251132Y-52501151D01*
X133136760Y-52725616D01*
X133058910Y-52965214D01*
X133019500Y-53214038D01*
X122496439Y-53214038D01*
X122410109Y-53095213D01*
X122259786Y-52944890D01*
X122087817Y-52819949D01*
X122078504Y-52815204D01*
X122027707Y-52767230D01*
X122010912Y-52699409D01*
X122033449Y-52633274D01*
X122078507Y-52594232D01*
X122087558Y-52589620D01*
X122259459Y-52464727D01*
X122259464Y-52464723D01*
X122409723Y-52314464D01*
X122409727Y-52314459D01*
X122534620Y-52142557D01*
X122631095Y-51953217D01*
X122696757Y-51751129D01*
X122696757Y-51751126D01*
X122707231Y-51685000D01*
X119813012Y-51685000D01*
X119845925Y-51627993D01*
X119880000Y-51500826D01*
X119880000Y-51369174D01*
X119845925Y-51242007D01*
X119813012Y-51185000D01*
X122707231Y-51185000D01*
X122696757Y-51118873D01*
X122696757Y-51118870D01*
X122631095Y-50916782D01*
X122534620Y-50727442D01*
X122409727Y-50555540D01*
X122409723Y-50555535D01*
X122259464Y-50405276D01*
X122259459Y-50405272D01*
X122087555Y-50280377D01*
X122078500Y-50275763D01*
X122027706Y-50227788D01*
X122010912Y-50159966D01*
X122033451Y-50093832D01*
X122078508Y-50054793D01*
X122087816Y-50050051D01*
X122174147Y-49987328D01*
X122259786Y-49925109D01*
X122259788Y-49925106D01*
X122259792Y-49925104D01*
X122410104Y-49774792D01*
X122410106Y-49774788D01*
X122410109Y-49774786D01*
X122535048Y-49602820D01*
X122535047Y-49602820D01*
X122535051Y-49602816D01*
X122631557Y-49413412D01*
X122697246Y-49211243D01*
X122730500Y-49001287D01*
X122730500Y-48788713D01*
X122697246Y-48578757D01*
X122631557Y-48376588D01*
X122535051Y-48187184D01*
X122535049Y-48187181D01*
X122535048Y-48187179D01*
X122410109Y-48015213D01*
X122259786Y-47864890D01*
X122087820Y-47739951D01*
X121898414Y-47643444D01*
X121898413Y-47643443D01*
X121898412Y-47643443D01*
X121696243Y-47577754D01*
X121696241Y-47577753D01*
X121696240Y-47577753D01*
X121534957Y-47552208D01*
X121486287Y-47544500D01*
X119273713Y-47544500D01*
X119225042Y-47552208D01*
X119063760Y-47577753D01*
X118861585Y-47643444D01*
X118672179Y-47739951D01*
X118500213Y-47864890D01*
X118349890Y-48015213D01*
X118224951Y-48187179D01*
X118128444Y-48376585D01*
X118062753Y-48578760D01*
X118029500Y-48788713D01*
X105380499Y-48788713D01*
X105380499Y-47997128D01*
X105374091Y-47937517D01*
X105323796Y-47802669D01*
X105323795Y-47802668D01*
X105323793Y-47802664D01*
X105237547Y-47687455D01*
X105237544Y-47687452D01*
X105122335Y-47601206D01*
X105122328Y-47601202D01*
X104987482Y-47550908D01*
X104987483Y-47550908D01*
X104927883Y-47544501D01*
X104927881Y-47544500D01*
X104927873Y-47544500D01*
X104927864Y-47544500D01*
X101332129Y-47544500D01*
X101332123Y-47544501D01*
X101272516Y-47550908D01*
X101137671Y-47601202D01*
X101137664Y-47601206D01*
X101022455Y-47687452D01*
X101022452Y-47687455D01*
X100936206Y-47802664D01*
X100936202Y-47802671D01*
X100885908Y-47937517D01*
X100879501Y-47997116D01*
X100879501Y-47997123D01*
X100879500Y-47997135D01*
X100879500Y-49792870D01*
X100879501Y-49792876D01*
X100885908Y-49852483D01*
X100936202Y-49987328D01*
X100936206Y-49987335D01*
X101022452Y-50102544D01*
X101022455Y-50102547D01*
X101137664Y-50188793D01*
X101137673Y-50188798D01*
X101232664Y-50224227D01*
X101288598Y-50266098D01*
X101313016Y-50331562D01*
X101298165Y-50399835D01*
X101277014Y-50428090D01*
X101149889Y-50555215D01*
X101024951Y-50727179D01*
X100928444Y-50916585D01*
X100862753Y-51118760D01*
X100861291Y-51127993D01*
X100829500Y-51328713D01*
X100195500Y-51328713D01*
X100195500Y-46598500D01*
X100215185Y-46531461D01*
X100267989Y-46485706D01*
X100319500Y-46474500D01*
X163840500Y-46474500D01*
X163907539Y-46494185D01*
G37*
%TD.AperFunction*%
%TD*%
M02*
