%TF.GenerationSoftware,KiCad,Pcbnew,10.0.4*%
%TF.CreationDate,2026-07-25T14:44:29-07:00*%
%TF.ProjectId,hackPad,6861636b-5061-4642-9e6b-696361645f70,rev?*%
%TF.SameCoordinates,Original*%
%TF.FileFunction,Legend,Top*%
%TF.FilePolarity,Positive*%
%FSLAX46Y46*%
G04 Gerber Fmt 4.6, Leading zero omitted, Abs format (unit mm)*
G04 Created by KiCad (PCBNEW 10.0.4) date 2026-07-25 14:44:29*
%MOMM*%
%LPD*%
G01*
G04 APERTURE LIST*
%ADD10C,0.000000*%
%ADD11C,0.100000*%
%ADD12C,0.150000*%
%ADD13C,0.101600*%
%ADD14C,0.127000*%
%ADD15C,0.120000*%
%ADD16C,0.254000*%
%ADD17C,0.025400*%
G04 APERTURE END LIST*
D10*
G36*
X157413637Y-50542707D02*
G01*
X157419767Y-50544893D01*
X157425757Y-50547318D01*
X157431602Y-50549975D01*
X157437297Y-50552858D01*
X157442838Y-50555960D01*
X157448221Y-50559274D01*
X157453441Y-50562794D01*
X157458494Y-50566513D01*
X157463374Y-50570424D01*
X157468079Y-50574521D01*
X157472603Y-50578797D01*
X157476941Y-50583245D01*
X157481090Y-50587859D01*
X157485045Y-50592633D01*
X157488801Y-50597558D01*
X157492354Y-50602630D01*
X157495700Y-50607841D01*
X157498833Y-50613185D01*
X157501751Y-50618654D01*
X157504447Y-50624243D01*
X157506918Y-50629944D01*
X157509160Y-50635751D01*
X157511167Y-50641658D01*
X157512935Y-50647657D01*
X157514461Y-50653743D01*
X157515738Y-50659907D01*
X157516764Y-50666145D01*
X157517533Y-50672448D01*
X157518041Y-50678812D01*
X157518284Y-50685227D01*
X157518257Y-50691690D01*
X157517956Y-50698191D01*
X157146329Y-56195801D01*
X157145996Y-56203968D01*
X157146098Y-56212101D01*
X157146628Y-56220183D01*
X157147582Y-56228197D01*
X157148953Y-56236130D01*
X157150736Y-56243963D01*
X157152924Y-56251683D01*
X157155512Y-56259272D01*
X157158493Y-56266716D01*
X157161863Y-56273998D01*
X157165614Y-56281102D01*
X157169742Y-56288013D01*
X157174240Y-56294715D01*
X157179103Y-56301191D01*
X157184324Y-56307427D01*
X157189898Y-56313406D01*
X158860672Y-58012300D01*
X158865696Y-58017656D01*
X158870416Y-58023193D01*
X158874834Y-58028899D01*
X158878948Y-58034763D01*
X158882757Y-58040774D01*
X158886262Y-58046921D01*
X158889463Y-58053192D01*
X158892357Y-58059577D01*
X158894946Y-58066064D01*
X158897228Y-58072642D01*
X158899203Y-58079299D01*
X158900871Y-58086025D01*
X158902232Y-58092809D01*
X158903284Y-58099639D01*
X158904027Y-58106503D01*
X158904462Y-58113392D01*
X158904586Y-58120293D01*
X158904401Y-58127195D01*
X158903905Y-58134088D01*
X158903098Y-58140959D01*
X158901980Y-58147798D01*
X158900550Y-58154594D01*
X158898807Y-58161335D01*
X158896752Y-58168010D01*
X158894384Y-58174608D01*
X158891701Y-58181118D01*
X158888705Y-58187529D01*
X158885394Y-58193829D01*
X158881768Y-58200006D01*
X158877826Y-58206051D01*
X158873569Y-58211952D01*
X158868995Y-58217697D01*
X156621639Y-60907257D01*
X156617555Y-60911948D01*
X156613313Y-60916442D01*
X156608919Y-60920736D01*
X156604381Y-60924828D01*
X156599706Y-60928718D01*
X156594900Y-60932403D01*
X156589970Y-60935882D01*
X156584923Y-60939153D01*
X156579766Y-60942214D01*
X156574506Y-60945064D01*
X156569149Y-60947700D01*
X156563702Y-60950122D01*
X156558173Y-60952327D01*
X156552567Y-60954314D01*
X156546893Y-60956081D01*
X156541155Y-60957627D01*
X156535363Y-60958949D01*
X156529521Y-60960046D01*
X156523638Y-60960917D01*
X156517720Y-60961559D01*
X156511773Y-60961970D01*
X156505806Y-60962150D01*
X156499823Y-60962097D01*
X156493833Y-60961808D01*
X156487842Y-60961283D01*
X156481857Y-60960519D01*
X156475885Y-60959514D01*
X156469932Y-60958268D01*
X156464006Y-60956778D01*
X156458113Y-60955042D01*
X156452260Y-60953059D01*
X156446454Y-60950828D01*
X155122969Y-60411150D01*
X155115421Y-60408302D01*
X155107772Y-60405866D01*
X155100038Y-60403843D01*
X155092235Y-60402232D01*
X155084379Y-60401032D01*
X155076486Y-60400242D01*
X155068573Y-60399862D01*
X155060656Y-60399893D01*
X155052752Y-60400332D01*
X155044875Y-60401180D01*
X155037043Y-60402437D01*
X155029272Y-60404101D01*
X155021578Y-60406172D01*
X155013977Y-60408650D01*
X155006486Y-60411535D01*
X154999120Y-60414825D01*
X154991938Y-60418500D01*
X154984994Y-60422527D01*
X154978297Y-60426895D01*
X154971859Y-60431590D01*
X154965690Y-60436600D01*
X154959801Y-60441913D01*
X154954201Y-60447517D01*
X154948903Y-60453400D01*
X154943915Y-60459548D01*
X154939249Y-60465951D01*
X154934916Y-60472594D01*
X154930925Y-60479467D01*
X154927288Y-60486556D01*
X154924014Y-60493850D01*
X154921116Y-60501335D01*
X154918602Y-60509000D01*
X154298693Y-62582250D01*
X154295675Y-62591307D01*
X154292126Y-62600097D01*
X154288063Y-62608603D01*
X154283505Y-62616805D01*
X154278472Y-62624684D01*
X154272982Y-62632221D01*
X154267053Y-62639399D01*
X154260704Y-62646197D01*
X154253954Y-62652597D01*
X154246822Y-62658581D01*
X154239326Y-62664128D01*
X154231486Y-62669222D01*
X154223319Y-62673841D01*
X154214844Y-62677969D01*
X154206081Y-62681585D01*
X154197047Y-62684672D01*
X151829427Y-63412267D01*
X151823913Y-63413850D01*
X151818358Y-63415221D01*
X151812767Y-63416382D01*
X151807146Y-63417331D01*
X151801501Y-63418070D01*
X151795839Y-63418597D01*
X151790165Y-63418914D01*
X151784485Y-63419019D01*
X151778804Y-63418914D01*
X151773130Y-63418597D01*
X151767468Y-63418070D01*
X151761823Y-63417331D01*
X151756203Y-63416382D01*
X151750612Y-63415221D01*
X151745056Y-63413850D01*
X151739542Y-63412267D01*
X149371920Y-62684673D01*
X149362887Y-62681586D01*
X149354123Y-62677970D01*
X149345649Y-62673842D01*
X149337482Y-62669222D01*
X149329641Y-62664129D01*
X149322145Y-62658581D01*
X149315013Y-62652597D01*
X149308263Y-62646197D01*
X149301915Y-62639399D01*
X149295986Y-62632221D01*
X149290496Y-62624683D01*
X149285462Y-62616804D01*
X149280905Y-62608602D01*
X149276842Y-62600096D01*
X149273293Y-62591305D01*
X149270276Y-62582249D01*
X148650366Y-60509000D01*
X148647852Y-60501334D01*
X148644953Y-60493849D01*
X148641679Y-60486555D01*
X148638042Y-60479466D01*
X148634051Y-60472593D01*
X148629718Y-60465950D01*
X148625052Y-60459548D01*
X148620064Y-60453399D01*
X148614765Y-60447517D01*
X148609166Y-60441913D01*
X148603277Y-60436599D01*
X148597108Y-60431589D01*
X148590670Y-60426894D01*
X148583973Y-60422527D01*
X148577029Y-60418499D01*
X148569848Y-60414825D01*
X148562482Y-60411534D01*
X148554991Y-60408649D01*
X148547390Y-60406171D01*
X148539696Y-60404099D01*
X148531925Y-60402435D01*
X148524093Y-60401179D01*
X148516216Y-60400331D01*
X148508311Y-60399891D01*
X148500394Y-60399861D01*
X148492481Y-60400240D01*
X148484589Y-60401030D01*
X148476733Y-60402230D01*
X148468929Y-60403842D01*
X148461195Y-60405865D01*
X148453546Y-60408300D01*
X148445998Y-60411148D01*
X147122513Y-60950827D01*
X147110854Y-60955041D01*
X147099035Y-60958267D01*
X147087110Y-60960518D01*
X147075134Y-60961807D01*
X147063161Y-60962149D01*
X147051247Y-60961557D01*
X147039445Y-60960045D01*
X147027811Y-60957625D01*
X147016400Y-60954313D01*
X147005265Y-60950121D01*
X146994461Y-60945062D01*
X146984044Y-60939151D01*
X146974067Y-60932402D01*
X146964586Y-60924827D01*
X146955655Y-60916440D01*
X146947329Y-60907255D01*
X146314419Y-60149811D01*
X150854466Y-60149811D01*
X150854671Y-60155097D01*
X150855118Y-60160363D01*
X150855807Y-60165602D01*
X150856735Y-60170804D01*
X150857901Y-60175959D01*
X150859304Y-60181060D01*
X150860942Y-60186097D01*
X150862815Y-60191061D01*
X150864920Y-60195943D01*
X150867257Y-60200736D01*
X150869824Y-60205428D01*
X150872619Y-60210013D01*
X150875642Y-60214480D01*
X150878890Y-60218822D01*
X150882363Y-60223028D01*
X150886059Y-60227091D01*
X150889976Y-60231000D01*
X150894115Y-60234749D01*
X150898472Y-60238326D01*
X151209783Y-60481622D01*
X151214256Y-60484949D01*
X151218840Y-60488028D01*
X151223526Y-60490860D01*
X151228305Y-60493446D01*
X151233169Y-60495786D01*
X151238109Y-60497881D01*
X151243116Y-60499732D01*
X151248182Y-60501340D01*
X151253298Y-60502705D01*
X151258455Y-60503828D01*
X151263644Y-60504710D01*
X151268857Y-60505352D01*
X151274086Y-60505753D01*
X151279321Y-60505916D01*
X151284553Y-60505840D01*
X151289775Y-60505526D01*
X151294977Y-60504976D01*
X151300151Y-60504189D01*
X151305288Y-60503167D01*
X151310379Y-60501910D01*
X151315415Y-60500419D01*
X151320389Y-60498694D01*
X151325291Y-60496738D01*
X151330112Y-60494549D01*
X151334844Y-60492129D01*
X151339479Y-60489478D01*
X151344006Y-60486598D01*
X151348419Y-60483489D01*
X151352707Y-60480152D01*
X151356863Y-60476587D01*
X151360878Y-60472795D01*
X151364743Y-60468777D01*
X151745029Y-60053994D01*
X151746979Y-60051976D01*
X151749021Y-60050071D01*
X151751151Y-60048283D01*
X151753363Y-60046613D01*
X151755653Y-60045064D01*
X151758015Y-60043638D01*
X151760445Y-60042337D01*
X151762936Y-60041163D01*
X151765485Y-60040119D01*
X151768086Y-60039207D01*
X151770733Y-60038429D01*
X151773422Y-60037788D01*
X151776148Y-60037285D01*
X151778905Y-60036923D01*
X151781689Y-60036704D01*
X151784494Y-60036631D01*
X151787299Y-60036704D01*
X151790082Y-60036923D01*
X151792840Y-60037285D01*
X151795566Y-60037788D01*
X151798255Y-60038429D01*
X151800902Y-60039207D01*
X151803503Y-60040119D01*
X151806052Y-60041163D01*
X151808543Y-60042337D01*
X151810973Y-60043638D01*
X151813335Y-60045064D01*
X151815625Y-60046613D01*
X151817837Y-60048283D01*
X151819967Y-60050071D01*
X151822009Y-60051976D01*
X151823958Y-60053994D01*
X152204239Y-60468777D01*
X152208104Y-60472795D01*
X152212119Y-60476587D01*
X152216275Y-60480152D01*
X152220563Y-60483489D01*
X152224976Y-60486598D01*
X152229503Y-60489478D01*
X152234138Y-60492129D01*
X152238870Y-60494549D01*
X152243691Y-60496738D01*
X152248593Y-60498694D01*
X152253567Y-60500419D01*
X152258603Y-60501910D01*
X152263694Y-60503167D01*
X152268831Y-60504189D01*
X152274005Y-60504976D01*
X152279207Y-60505526D01*
X152284429Y-60505840D01*
X152289662Y-60505916D01*
X152294897Y-60505753D01*
X152300126Y-60505352D01*
X152305339Y-60504710D01*
X152310529Y-60503828D01*
X152315686Y-60502705D01*
X152320802Y-60501340D01*
X152325868Y-60499732D01*
X152330876Y-60497881D01*
X152335816Y-60495786D01*
X152340681Y-60493446D01*
X152345461Y-60490860D01*
X152350147Y-60488028D01*
X152354732Y-60484949D01*
X152359205Y-60481622D01*
X152670517Y-60238326D01*
X152674874Y-60234749D01*
X152679011Y-60231000D01*
X152682928Y-60227091D01*
X152686624Y-60223028D01*
X152690096Y-60218822D01*
X152693344Y-60214480D01*
X152696366Y-60210013D01*
X152699162Y-60205428D01*
X152701728Y-60200736D01*
X152704065Y-60195943D01*
X152706170Y-60191061D01*
X152708043Y-60186097D01*
X152709681Y-60181060D01*
X152711084Y-60175959D01*
X152712251Y-60170804D01*
X152713179Y-60165602D01*
X152713867Y-60160363D01*
X152714315Y-60155097D01*
X152714520Y-60149811D01*
X152714481Y-60144514D01*
X152714198Y-60139216D01*
X152713668Y-60133925D01*
X152712890Y-60128651D01*
X152711863Y-60123401D01*
X152710585Y-60118186D01*
X152709055Y-60113014D01*
X152707272Y-60107893D01*
X152705234Y-60102834D01*
X152702940Y-60097844D01*
X152700388Y-60092932D01*
X152697577Y-60088108D01*
X152694507Y-60083380D01*
X151849588Y-58848988D01*
X151846720Y-58845062D01*
X151843638Y-58841344D01*
X151840352Y-58837841D01*
X151836875Y-58834560D01*
X151833219Y-58831505D01*
X151829394Y-58828684D01*
X151825414Y-58826102D01*
X151821289Y-58823765D01*
X151817031Y-58821681D01*
X151812652Y-58819854D01*
X151808164Y-58818292D01*
X151803578Y-58817000D01*
X151798906Y-58815984D01*
X151794160Y-58815251D01*
X151789351Y-58814806D01*
X151784491Y-58814657D01*
X151779631Y-58814806D01*
X151774822Y-58815251D01*
X151770075Y-58815984D01*
X151765404Y-58817000D01*
X151760818Y-58818292D01*
X151756330Y-58819854D01*
X151751951Y-58821681D01*
X151747693Y-58823765D01*
X151743569Y-58826102D01*
X151739588Y-58828684D01*
X151735764Y-58831505D01*
X151732108Y-58834560D01*
X151728631Y-58837841D01*
X151725345Y-58841344D01*
X151722263Y-58845062D01*
X151719394Y-58848988D01*
X150874481Y-60083380D01*
X150871410Y-60088108D01*
X150868600Y-60092932D01*
X150866048Y-60097844D01*
X150863754Y-60102834D01*
X150861716Y-60107893D01*
X150859932Y-60113014D01*
X150858402Y-60118186D01*
X150857124Y-60123401D01*
X150856097Y-60128651D01*
X150855319Y-60133925D01*
X150854788Y-60139216D01*
X150854505Y-60144514D01*
X150854466Y-60149811D01*
X146314419Y-60149811D01*
X144699973Y-58217697D01*
X144695399Y-58211952D01*
X144691142Y-58206051D01*
X144687200Y-58200006D01*
X144683574Y-58193828D01*
X144680263Y-58187528D01*
X144677266Y-58181118D01*
X144674584Y-58174608D01*
X144672216Y-58168010D01*
X144670160Y-58161335D01*
X144668418Y-58154594D01*
X144666988Y-58147798D01*
X144665869Y-58140959D01*
X144665063Y-58134087D01*
X144664567Y-58127195D01*
X144664381Y-58120292D01*
X144664506Y-58113392D01*
X144664940Y-58106503D01*
X144665684Y-58099638D01*
X144666736Y-58092809D01*
X144668096Y-58086025D01*
X144669764Y-58079299D01*
X144671740Y-58072641D01*
X144674022Y-58066064D01*
X144676611Y-58059577D01*
X144679506Y-58053192D01*
X144682706Y-58046921D01*
X144686211Y-58040774D01*
X144690021Y-58034763D01*
X144694135Y-58028899D01*
X144698552Y-58023193D01*
X144703273Y-58017656D01*
X144708297Y-58012300D01*
X145465451Y-57242402D01*
X147183969Y-57242402D01*
X147185905Y-57318836D01*
X147191649Y-57394272D01*
X147201108Y-57468617D01*
X147214188Y-57541777D01*
X147230795Y-57613657D01*
X147250836Y-57684165D01*
X147274218Y-57753207D01*
X147300845Y-57820689D01*
X147330626Y-57886517D01*
X147363465Y-57950598D01*
X147399270Y-58012838D01*
X147437946Y-58073143D01*
X147479400Y-58131419D01*
X147523539Y-58187574D01*
X147570268Y-58241512D01*
X147619494Y-58293141D01*
X147671123Y-58342367D01*
X147725062Y-58389096D01*
X147781216Y-58433235D01*
X147839493Y-58474689D01*
X147899798Y-58513365D01*
X147962038Y-58549170D01*
X148026118Y-58582010D01*
X148091947Y-58611790D01*
X148159428Y-58638418D01*
X148228470Y-58661799D01*
X148298978Y-58681840D01*
X148370859Y-58698447D01*
X148444018Y-58711527D01*
X148518363Y-58720986D01*
X148593799Y-58726730D01*
X148670234Y-58728666D01*
X148746668Y-58726730D01*
X148822105Y-58720986D01*
X148896451Y-58711527D01*
X148969611Y-58698447D01*
X149041492Y-58681840D01*
X149112001Y-58661799D01*
X149181043Y-58638418D01*
X149248525Y-58611790D01*
X149314353Y-58582010D01*
X149378435Y-58549170D01*
X149440675Y-58513365D01*
X149500980Y-58474689D01*
X149559257Y-58433235D01*
X149615411Y-58389096D01*
X149669350Y-58342367D01*
X149720979Y-58293141D01*
X149770206Y-58241512D01*
X149816935Y-58187574D01*
X149861073Y-58131419D01*
X149902528Y-58073143D01*
X149941204Y-58012838D01*
X149977009Y-57950598D01*
X150009848Y-57886517D01*
X150039629Y-57820689D01*
X150066257Y-57753207D01*
X150089638Y-57684165D01*
X150109679Y-57613657D01*
X150126287Y-57541777D01*
X150139367Y-57468617D01*
X150148825Y-57394272D01*
X150154569Y-57318836D01*
X150156505Y-57242402D01*
X153412486Y-57242402D01*
X153414421Y-57318836D01*
X153420165Y-57394272D01*
X153429624Y-57468617D01*
X153442704Y-57541777D01*
X153459311Y-57613657D01*
X153479352Y-57684165D01*
X153502733Y-57753207D01*
X153529361Y-57820689D01*
X153559141Y-57886517D01*
X153591980Y-57950598D01*
X153627785Y-58012838D01*
X153666461Y-58073143D01*
X153707915Y-58131419D01*
X153752053Y-58187574D01*
X153798782Y-58241512D01*
X153848008Y-58293141D01*
X153899637Y-58342367D01*
X153953575Y-58389096D01*
X154009729Y-58433235D01*
X154068006Y-58474689D01*
X154128311Y-58513365D01*
X154190551Y-58549170D01*
X154254631Y-58582010D01*
X154320460Y-58611790D01*
X154387942Y-58638418D01*
X154456984Y-58661799D01*
X154527492Y-58681840D01*
X154599373Y-58698447D01*
X154672533Y-58711527D01*
X154746878Y-58720986D01*
X154822315Y-58726730D01*
X154898750Y-58728666D01*
X154975185Y-58726730D01*
X155050621Y-58720986D01*
X155124967Y-58711527D01*
X155198126Y-58698447D01*
X155270007Y-58681840D01*
X155340516Y-58661799D01*
X155409558Y-58638418D01*
X155477039Y-58611790D01*
X155542868Y-58582010D01*
X155606948Y-58549170D01*
X155669188Y-58513365D01*
X155729493Y-58474689D01*
X155787770Y-58433235D01*
X155843924Y-58389096D01*
X155897862Y-58342367D01*
X155949492Y-58293141D01*
X155998717Y-58241512D01*
X156045446Y-58187574D01*
X156089585Y-58131419D01*
X156131039Y-58073143D01*
X156169715Y-58012838D01*
X156205519Y-57950598D01*
X156238359Y-57886517D01*
X156268139Y-57820689D01*
X156294766Y-57753207D01*
X156318148Y-57684165D01*
X156338189Y-57613657D01*
X156354796Y-57541777D01*
X156367876Y-57468617D01*
X156377335Y-57394272D01*
X156383079Y-57318836D01*
X156385014Y-57242402D01*
X156383079Y-57165967D01*
X156377335Y-57090530D01*
X156367876Y-57016185D01*
X156354796Y-56943025D01*
X156338189Y-56871143D01*
X156318148Y-56800635D01*
X156294766Y-56731593D01*
X156268139Y-56664111D01*
X156238359Y-56598282D01*
X156205519Y-56534201D01*
X156169715Y-56471961D01*
X156131039Y-56411656D01*
X156089585Y-56353379D01*
X156045446Y-56297224D01*
X155998717Y-56243285D01*
X155949492Y-56191656D01*
X155897862Y-56142430D01*
X155843924Y-56095701D01*
X155787770Y-56051562D01*
X155729493Y-56010107D01*
X155669188Y-55971431D01*
X155606948Y-55935626D01*
X155542868Y-55902787D01*
X155477039Y-55873006D01*
X155409558Y-55846379D01*
X155340516Y-55822997D01*
X155270007Y-55802956D01*
X155198126Y-55786349D01*
X155124967Y-55773269D01*
X155050621Y-55763810D01*
X154975185Y-55758066D01*
X154898750Y-55756130D01*
X154822315Y-55758066D01*
X154746878Y-55763810D01*
X154672533Y-55773269D01*
X154599373Y-55786349D01*
X154527492Y-55802956D01*
X154456984Y-55822997D01*
X154387942Y-55846379D01*
X154320460Y-55873006D01*
X154254631Y-55902787D01*
X154190551Y-55935626D01*
X154128311Y-55971431D01*
X154068006Y-56010107D01*
X154009729Y-56051562D01*
X153953575Y-56095701D01*
X153899637Y-56142430D01*
X153848008Y-56191656D01*
X153798782Y-56243285D01*
X153752053Y-56297224D01*
X153707915Y-56353379D01*
X153666461Y-56411656D01*
X153627785Y-56471961D01*
X153591980Y-56534201D01*
X153559141Y-56598282D01*
X153529361Y-56664111D01*
X153502733Y-56731593D01*
X153479352Y-56800635D01*
X153459311Y-56871143D01*
X153442704Y-56943025D01*
X153429624Y-57016185D01*
X153420165Y-57090530D01*
X153414421Y-57165967D01*
X153412486Y-57242402D01*
X150156505Y-57242402D01*
X150154569Y-57165967D01*
X150148825Y-57090530D01*
X150139367Y-57016185D01*
X150126287Y-56943025D01*
X150109679Y-56871143D01*
X150089638Y-56800635D01*
X150066256Y-56731593D01*
X150039629Y-56664111D01*
X150009848Y-56598282D01*
X149977009Y-56534201D01*
X149941204Y-56471961D01*
X149902528Y-56411656D01*
X149861073Y-56353379D01*
X149816935Y-56297224D01*
X149770205Y-56243285D01*
X149720979Y-56191656D01*
X149669350Y-56142430D01*
X149615411Y-56095701D01*
X149559256Y-56051562D01*
X149500980Y-56010107D01*
X149440674Y-55971431D01*
X149378434Y-55935626D01*
X149314353Y-55902787D01*
X149248525Y-55873006D01*
X149181042Y-55846379D01*
X149112000Y-55822997D01*
X149041492Y-55802956D01*
X148969611Y-55786349D01*
X148896451Y-55773269D01*
X148822105Y-55763810D01*
X148746668Y-55758066D01*
X148670234Y-55756130D01*
X148593799Y-55758066D01*
X148518363Y-55763810D01*
X148444018Y-55773269D01*
X148370859Y-55786349D01*
X148298978Y-55802956D01*
X148228470Y-55822997D01*
X148159428Y-55846379D01*
X148091947Y-55873006D01*
X148026118Y-55902787D01*
X147962038Y-55935626D01*
X147899798Y-55971431D01*
X147839493Y-56010107D01*
X147781216Y-56051562D01*
X147725062Y-56095701D01*
X147671123Y-56142430D01*
X147619494Y-56191656D01*
X147570268Y-56243285D01*
X147523539Y-56297224D01*
X147479400Y-56353379D01*
X147437946Y-56411656D01*
X147399270Y-56471961D01*
X147363465Y-56534201D01*
X147330626Y-56598282D01*
X147300845Y-56664111D01*
X147274218Y-56731593D01*
X147250836Y-56800635D01*
X147230795Y-56871143D01*
X147214188Y-56943025D01*
X147201108Y-57016185D01*
X147191649Y-57090530D01*
X147185905Y-57165967D01*
X147183969Y-57242402D01*
X145465451Y-57242402D01*
X146379069Y-56313406D01*
X146384644Y-56307427D01*
X146389865Y-56301191D01*
X146394728Y-56294715D01*
X146399226Y-56288013D01*
X146403354Y-56281102D01*
X146407106Y-56273998D01*
X146410476Y-56266716D01*
X146413457Y-56259272D01*
X146416045Y-56251683D01*
X146418233Y-56243963D01*
X146420016Y-56236130D01*
X146421387Y-56228197D01*
X146422341Y-56220183D01*
X146422871Y-56212101D01*
X146422973Y-56203968D01*
X146422639Y-56195801D01*
X146051012Y-50698191D01*
X146050710Y-50691689D01*
X146050683Y-50685227D01*
X146050926Y-50678811D01*
X146051434Y-50672448D01*
X146053229Y-50659907D01*
X146056032Y-50647657D01*
X146059808Y-50635751D01*
X146064520Y-50624242D01*
X146070134Y-50613184D01*
X146076614Y-50602630D01*
X146083923Y-50592632D01*
X146092027Y-50583245D01*
X146100889Y-50574520D01*
X146110474Y-50566512D01*
X146120747Y-50559274D01*
X146131671Y-50552858D01*
X146137366Y-50549975D01*
X146143211Y-50547317D01*
X146149201Y-50544892D01*
X146155332Y-50542706D01*
X151784485Y-48668175D01*
X157413637Y-50542707D01*
G37*
D11*
X108031646Y-52847419D02*
X108698312Y-53847419D01*
X108698312Y-52847419D02*
X108031646Y-53847419D01*
X109079265Y-53847419D02*
X109079265Y-52847419D01*
X109507836Y-53561704D02*
X109984026Y-53561704D01*
X109412598Y-53847419D02*
X109745931Y-52847419D01*
X109745931Y-52847419D02*
X110079264Y-53847419D01*
X110603074Y-52847419D02*
X110793550Y-52847419D01*
X110793550Y-52847419D02*
X110888788Y-52895038D01*
X110888788Y-52895038D02*
X110984026Y-52990276D01*
X110984026Y-52990276D02*
X111031645Y-53180752D01*
X111031645Y-53180752D02*
X111031645Y-53514085D01*
X111031645Y-53514085D02*
X110984026Y-53704561D01*
X110984026Y-53704561D02*
X110888788Y-53799800D01*
X110888788Y-53799800D02*
X110793550Y-53847419D01*
X110793550Y-53847419D02*
X110603074Y-53847419D01*
X110603074Y-53847419D02*
X110507836Y-53799800D01*
X110507836Y-53799800D02*
X110412598Y-53704561D01*
X110412598Y-53704561D02*
X110364979Y-53514085D01*
X110364979Y-53514085D02*
X110364979Y-53180752D01*
X110364979Y-53180752D02*
X110412598Y-52990276D01*
X110412598Y-52990276D02*
X110507836Y-52895038D01*
X110507836Y-52895038D02*
X110603074Y-52847419D01*
X112222122Y-53847419D02*
X112222122Y-52847419D01*
X112222122Y-53323609D02*
X112793550Y-53323609D01*
X112793550Y-53847419D02*
X112793550Y-52847419D01*
X113269741Y-53323609D02*
X113603074Y-53323609D01*
X113745931Y-53847419D02*
X113269741Y-53847419D01*
X113269741Y-53847419D02*
X113269741Y-52847419D01*
X113269741Y-52847419D02*
X113745931Y-52847419D01*
X114745931Y-53847419D02*
X114412598Y-53371228D01*
X114174503Y-53847419D02*
X114174503Y-52847419D01*
X114174503Y-52847419D02*
X114555455Y-52847419D01*
X114555455Y-52847419D02*
X114650693Y-52895038D01*
X114650693Y-52895038D02*
X114698312Y-52942657D01*
X114698312Y-52942657D02*
X114745931Y-53037895D01*
X114745931Y-53037895D02*
X114745931Y-53180752D01*
X114745931Y-53180752D02*
X114698312Y-53275990D01*
X114698312Y-53275990D02*
X114650693Y-53323609D01*
X114650693Y-53323609D02*
X114555455Y-53371228D01*
X114555455Y-53371228D02*
X114174503Y-53371228D01*
X115174503Y-53323609D02*
X115507836Y-53323609D01*
X115650693Y-53847419D02*
X115174503Y-53847419D01*
X115174503Y-53847419D02*
X115174503Y-52847419D01*
X115174503Y-52847419D02*
X115650693Y-52847419D01*
D12*
X144688160Y-65141256D02*
X144783398Y-65188875D01*
X144783398Y-65188875D02*
X144973874Y-65188875D01*
X144973874Y-65188875D02*
X145069112Y-65141256D01*
X145069112Y-65141256D02*
X145116731Y-65046017D01*
X145116731Y-65046017D02*
X145116731Y-64998398D01*
X145116731Y-64998398D02*
X145069112Y-64903160D01*
X145069112Y-64903160D02*
X144973874Y-64855541D01*
X144973874Y-64855541D02*
X144831017Y-64855541D01*
X144831017Y-64855541D02*
X144735779Y-64807922D01*
X144735779Y-64807922D02*
X144688160Y-64712684D01*
X144688160Y-64712684D02*
X144688160Y-64665065D01*
X144688160Y-64665065D02*
X144735779Y-64569827D01*
X144735779Y-64569827D02*
X144831017Y-64522208D01*
X144831017Y-64522208D02*
X144973874Y-64522208D01*
X144973874Y-64522208D02*
X145069112Y-64569827D01*
X145402446Y-64522208D02*
X145783398Y-64522208D01*
X145545303Y-64188875D02*
X145545303Y-65046017D01*
X145545303Y-65046017D02*
X145592922Y-65141256D01*
X145592922Y-65141256D02*
X145688160Y-65188875D01*
X145688160Y-65188875D02*
X145783398Y-65188875D01*
X146116732Y-65188875D02*
X146116732Y-64522208D01*
X146116732Y-64712684D02*
X146164351Y-64617446D01*
X146164351Y-64617446D02*
X146211970Y-64569827D01*
X146211970Y-64569827D02*
X146307208Y-64522208D01*
X146307208Y-64522208D02*
X146402446Y-64522208D01*
X147164351Y-65188875D02*
X147164351Y-64665065D01*
X147164351Y-64665065D02*
X147116732Y-64569827D01*
X147116732Y-64569827D02*
X147021494Y-64522208D01*
X147021494Y-64522208D02*
X146831018Y-64522208D01*
X146831018Y-64522208D02*
X146735780Y-64569827D01*
X147164351Y-65141256D02*
X147069113Y-65188875D01*
X147069113Y-65188875D02*
X146831018Y-65188875D01*
X146831018Y-65188875D02*
X146735780Y-65141256D01*
X146735780Y-65141256D02*
X146688161Y-65046017D01*
X146688161Y-65046017D02*
X146688161Y-64950779D01*
X146688161Y-64950779D02*
X146735780Y-64855541D01*
X146735780Y-64855541D02*
X146831018Y-64807922D01*
X146831018Y-64807922D02*
X147069113Y-64807922D01*
X147069113Y-64807922D02*
X147164351Y-64760303D01*
X147497685Y-64522208D02*
X147878637Y-64522208D01*
X147640542Y-64188875D02*
X147640542Y-65046017D01*
X147640542Y-65046017D02*
X147688161Y-65141256D01*
X147688161Y-65141256D02*
X147783399Y-65188875D01*
X147783399Y-65188875D02*
X147878637Y-65188875D01*
X148640542Y-65188875D02*
X148640542Y-64665065D01*
X148640542Y-64665065D02*
X148592923Y-64569827D01*
X148592923Y-64569827D02*
X148497685Y-64522208D01*
X148497685Y-64522208D02*
X148307209Y-64522208D01*
X148307209Y-64522208D02*
X148211971Y-64569827D01*
X148640542Y-65141256D02*
X148545304Y-65188875D01*
X148545304Y-65188875D02*
X148307209Y-65188875D01*
X148307209Y-65188875D02*
X148211971Y-65141256D01*
X148211971Y-65141256D02*
X148164352Y-65046017D01*
X148164352Y-65046017D02*
X148164352Y-64950779D01*
X148164352Y-64950779D02*
X148211971Y-64855541D01*
X148211971Y-64855541D02*
X148307209Y-64807922D01*
X148307209Y-64807922D02*
X148545304Y-64807922D01*
X148545304Y-64807922D02*
X148640542Y-64760303D01*
X149116733Y-65188875D02*
X149116733Y-64188875D01*
X149116733Y-64188875D02*
X149497685Y-64188875D01*
X149497685Y-64188875D02*
X149592923Y-64236494D01*
X149592923Y-64236494D02*
X149640542Y-64284113D01*
X149640542Y-64284113D02*
X149688161Y-64379351D01*
X149688161Y-64379351D02*
X149688161Y-64522208D01*
X149688161Y-64522208D02*
X149640542Y-64617446D01*
X149640542Y-64617446D02*
X149592923Y-64665065D01*
X149592923Y-64665065D02*
X149497685Y-64712684D01*
X149497685Y-64712684D02*
X149116733Y-64712684D01*
X150545304Y-65188875D02*
X150545304Y-64665065D01*
X150545304Y-64665065D02*
X150497685Y-64569827D01*
X150497685Y-64569827D02*
X150402447Y-64522208D01*
X150402447Y-64522208D02*
X150211971Y-64522208D01*
X150211971Y-64522208D02*
X150116733Y-64569827D01*
X150545304Y-65141256D02*
X150450066Y-65188875D01*
X150450066Y-65188875D02*
X150211971Y-65188875D01*
X150211971Y-65188875D02*
X150116733Y-65141256D01*
X150116733Y-65141256D02*
X150069114Y-65046017D01*
X150069114Y-65046017D02*
X150069114Y-64950779D01*
X150069114Y-64950779D02*
X150116733Y-64855541D01*
X150116733Y-64855541D02*
X150211971Y-64807922D01*
X150211971Y-64807922D02*
X150450066Y-64807922D01*
X150450066Y-64807922D02*
X150545304Y-64760303D01*
X151450066Y-65188875D02*
X151450066Y-64188875D01*
X151450066Y-65141256D02*
X151354828Y-65188875D01*
X151354828Y-65188875D02*
X151164352Y-65188875D01*
X151164352Y-65188875D02*
X151069114Y-65141256D01*
X151069114Y-65141256D02*
X151021495Y-65093636D01*
X151021495Y-65093636D02*
X150973876Y-64998398D01*
X150973876Y-64998398D02*
X150973876Y-64712684D01*
X150973876Y-64712684D02*
X151021495Y-64617446D01*
X151021495Y-64617446D02*
X151069114Y-64569827D01*
X151069114Y-64569827D02*
X151164352Y-64522208D01*
X151164352Y-64522208D02*
X151354828Y-64522208D01*
X151354828Y-64522208D02*
X151450066Y-64569827D01*
X144735779Y-66798819D02*
X144735779Y-65798819D01*
X144735779Y-66179771D02*
X144831017Y-66132152D01*
X144831017Y-66132152D02*
X145021493Y-66132152D01*
X145021493Y-66132152D02*
X145116731Y-66179771D01*
X145116731Y-66179771D02*
X145164350Y-66227390D01*
X145164350Y-66227390D02*
X145211969Y-66322628D01*
X145211969Y-66322628D02*
X145211969Y-66608342D01*
X145211969Y-66608342D02*
X145164350Y-66703580D01*
X145164350Y-66703580D02*
X145116731Y-66751200D01*
X145116731Y-66751200D02*
X145021493Y-66798819D01*
X145021493Y-66798819D02*
X144831017Y-66798819D01*
X144831017Y-66798819D02*
X144735779Y-66751200D01*
X145545303Y-66132152D02*
X145783398Y-66798819D01*
X146021493Y-66132152D02*
X145783398Y-66798819D01*
X145783398Y-66798819D02*
X145688160Y-67036914D01*
X145688160Y-67036914D02*
X145640541Y-67084533D01*
X145640541Y-67084533D02*
X145545303Y-67132152D01*
X147021494Y-66132152D02*
X147402446Y-66132152D01*
X147164351Y-65798819D02*
X147164351Y-66655961D01*
X147164351Y-66655961D02*
X147211970Y-66751200D01*
X147211970Y-66751200D02*
X147307208Y-66798819D01*
X147307208Y-66798819D02*
X147402446Y-66798819D01*
X147735780Y-66798819D02*
X147735780Y-65798819D01*
X148164351Y-66798819D02*
X148164351Y-66275009D01*
X148164351Y-66275009D02*
X148116732Y-66179771D01*
X148116732Y-66179771D02*
X148021494Y-66132152D01*
X148021494Y-66132152D02*
X147878637Y-66132152D01*
X147878637Y-66132152D02*
X147783399Y-66179771D01*
X147783399Y-66179771D02*
X147735780Y-66227390D01*
X149069113Y-66798819D02*
X149069113Y-66275009D01*
X149069113Y-66275009D02*
X149021494Y-66179771D01*
X149021494Y-66179771D02*
X148926256Y-66132152D01*
X148926256Y-66132152D02*
X148735780Y-66132152D01*
X148735780Y-66132152D02*
X148640542Y-66179771D01*
X149069113Y-66751200D02*
X148973875Y-66798819D01*
X148973875Y-66798819D02*
X148735780Y-66798819D01*
X148735780Y-66798819D02*
X148640542Y-66751200D01*
X148640542Y-66751200D02*
X148592923Y-66655961D01*
X148592923Y-66655961D02*
X148592923Y-66560723D01*
X148592923Y-66560723D02*
X148640542Y-66465485D01*
X148640542Y-66465485D02*
X148735780Y-66417866D01*
X148735780Y-66417866D02*
X148973875Y-66417866D01*
X148973875Y-66417866D02*
X149069113Y-66370247D01*
X149402447Y-66132152D02*
X149783399Y-66132152D01*
X149545304Y-65798819D02*
X149545304Y-66655961D01*
X149545304Y-66655961D02*
X149592923Y-66751200D01*
X149592923Y-66751200D02*
X149688161Y-66798819D01*
X149688161Y-66798819D02*
X149783399Y-66798819D01*
X150259590Y-66798819D02*
X150164352Y-66751200D01*
X150164352Y-66751200D02*
X150116733Y-66703580D01*
X150116733Y-66703580D02*
X150069114Y-66608342D01*
X150069114Y-66608342D02*
X150069114Y-66322628D01*
X150069114Y-66322628D02*
X150116733Y-66227390D01*
X150116733Y-66227390D02*
X150164352Y-66179771D01*
X150164352Y-66179771D02*
X150259590Y-66132152D01*
X150259590Y-66132152D02*
X150402447Y-66132152D01*
X150402447Y-66132152D02*
X150497685Y-66179771D01*
X150497685Y-66179771D02*
X150545304Y-66227390D01*
X150545304Y-66227390D02*
X150592923Y-66322628D01*
X150592923Y-66322628D02*
X150592923Y-66608342D01*
X150592923Y-66608342D02*
X150545304Y-66703580D01*
X150545304Y-66703580D02*
X150497685Y-66751200D01*
X150497685Y-66751200D02*
X150402447Y-66798819D01*
X150402447Y-66798819D02*
X150259590Y-66798819D01*
X151021495Y-66132152D02*
X151021495Y-66798819D01*
X151021495Y-66227390D02*
X151069114Y-66179771D01*
X151069114Y-66179771D02*
X151164352Y-66132152D01*
X151164352Y-66132152D02*
X151307209Y-66132152D01*
X151307209Y-66132152D02*
X151402447Y-66179771D01*
X151402447Y-66179771D02*
X151450066Y-66275009D01*
X151450066Y-66275009D02*
X151450066Y-66798819D01*
X152307209Y-66751200D02*
X152211971Y-66798819D01*
X152211971Y-66798819D02*
X152021495Y-66798819D01*
X152021495Y-66798819D02*
X151926257Y-66751200D01*
X151926257Y-66751200D02*
X151878638Y-66655961D01*
X151878638Y-66655961D02*
X151878638Y-66275009D01*
X151878638Y-66275009D02*
X151926257Y-66179771D01*
X151926257Y-66179771D02*
X152021495Y-66132152D01*
X152021495Y-66132152D02*
X152211971Y-66132152D01*
X152211971Y-66132152D02*
X152307209Y-66179771D01*
X152307209Y-66179771D02*
X152354828Y-66275009D01*
X152354828Y-66275009D02*
X152354828Y-66370247D01*
X152354828Y-66370247D02*
X151878638Y-66465485D01*
X152783400Y-66132152D02*
X152783400Y-67132152D01*
X152783400Y-66179771D02*
X152878638Y-66132152D01*
X152878638Y-66132152D02*
X153069114Y-66132152D01*
X153069114Y-66132152D02*
X153164352Y-66179771D01*
X153164352Y-66179771D02*
X153211971Y-66227390D01*
X153211971Y-66227390D02*
X153259590Y-66322628D01*
X153259590Y-66322628D02*
X153259590Y-66608342D01*
X153259590Y-66608342D02*
X153211971Y-66703580D01*
X153211971Y-66703580D02*
X153164352Y-66751200D01*
X153164352Y-66751200D02*
X153069114Y-66798819D01*
X153069114Y-66798819D02*
X152878638Y-66798819D01*
X152878638Y-66798819D02*
X152783400Y-66751200D01*
X154069114Y-66751200D02*
X153973876Y-66798819D01*
X153973876Y-66798819D02*
X153783400Y-66798819D01*
X153783400Y-66798819D02*
X153688162Y-66751200D01*
X153688162Y-66751200D02*
X153640543Y-66655961D01*
X153640543Y-66655961D02*
X153640543Y-66275009D01*
X153640543Y-66275009D02*
X153688162Y-66179771D01*
X153688162Y-66179771D02*
X153783400Y-66132152D01*
X153783400Y-66132152D02*
X153973876Y-66132152D01*
X153973876Y-66132152D02*
X154069114Y-66179771D01*
X154069114Y-66179771D02*
X154116733Y-66275009D01*
X154116733Y-66275009D02*
X154116733Y-66370247D01*
X154116733Y-66370247D02*
X153640543Y-66465485D01*
X154545305Y-66798819D02*
X154545305Y-66132152D01*
X154545305Y-66322628D02*
X154592924Y-66227390D01*
X154592924Y-66227390D02*
X154640543Y-66179771D01*
X154640543Y-66179771D02*
X154735781Y-66132152D01*
X154735781Y-66132152D02*
X154831019Y-66132152D01*
X155116734Y-66751200D02*
X155211972Y-66798819D01*
X155211972Y-66798819D02*
X155402448Y-66798819D01*
X155402448Y-66798819D02*
X155497686Y-66751200D01*
X155497686Y-66751200D02*
X155545305Y-66655961D01*
X155545305Y-66655961D02*
X155545305Y-66608342D01*
X155545305Y-66608342D02*
X155497686Y-66513104D01*
X155497686Y-66513104D02*
X155402448Y-66465485D01*
X155402448Y-66465485D02*
X155259591Y-66465485D01*
X155259591Y-66465485D02*
X155164353Y-66417866D01*
X155164353Y-66417866D02*
X155116734Y-66322628D01*
X155116734Y-66322628D02*
X155116734Y-66275009D01*
X155116734Y-66275009D02*
X155164353Y-66179771D01*
X155164353Y-66179771D02*
X155259591Y-66132152D01*
X155259591Y-66132152D02*
X155402448Y-66132152D01*
X155402448Y-66132152D02*
X155497686Y-66179771D01*
X156116734Y-66798819D02*
X156021496Y-66751200D01*
X156021496Y-66751200D02*
X155973877Y-66703580D01*
X155973877Y-66703580D02*
X155926258Y-66608342D01*
X155926258Y-66608342D02*
X155926258Y-66322628D01*
X155926258Y-66322628D02*
X155973877Y-66227390D01*
X155973877Y-66227390D02*
X156021496Y-66179771D01*
X156021496Y-66179771D02*
X156116734Y-66132152D01*
X156116734Y-66132152D02*
X156259591Y-66132152D01*
X156259591Y-66132152D02*
X156354829Y-66179771D01*
X156354829Y-66179771D02*
X156402448Y-66227390D01*
X156402448Y-66227390D02*
X156450067Y-66322628D01*
X156450067Y-66322628D02*
X156450067Y-66608342D01*
X156450067Y-66608342D02*
X156402448Y-66703580D01*
X156402448Y-66703580D02*
X156354829Y-66751200D01*
X156354829Y-66751200D02*
X156259591Y-66798819D01*
X156259591Y-66798819D02*
X156116734Y-66798819D01*
X156878639Y-66132152D02*
X156878639Y-66798819D01*
X156878639Y-66227390D02*
X156926258Y-66179771D01*
X156926258Y-66179771D02*
X157021496Y-66132152D01*
X157021496Y-66132152D02*
X157164353Y-66132152D01*
X157164353Y-66132152D02*
X157259591Y-66179771D01*
X157259591Y-66179771D02*
X157307210Y-66275009D01*
X157307210Y-66275009D02*
X157307210Y-66798819D01*
X158307210Y-66798819D02*
X157735782Y-66798819D01*
X158021496Y-66798819D02*
X158021496Y-65798819D01*
X158021496Y-65798819D02*
X157926258Y-65941676D01*
X157926258Y-65941676D02*
X157831020Y-66036914D01*
X157831020Y-66036914D02*
X157735782Y-66084533D01*
X158926258Y-65798819D02*
X159021496Y-65798819D01*
X159021496Y-65798819D02*
X159116734Y-65846438D01*
X159116734Y-65846438D02*
X159164353Y-65894057D01*
X159164353Y-65894057D02*
X159211972Y-65989295D01*
X159211972Y-65989295D02*
X159259591Y-66179771D01*
X159259591Y-66179771D02*
X159259591Y-66417866D01*
X159259591Y-66417866D02*
X159211972Y-66608342D01*
X159211972Y-66608342D02*
X159164353Y-66703580D01*
X159164353Y-66703580D02*
X159116734Y-66751200D01*
X159116734Y-66751200D02*
X159021496Y-66798819D01*
X159021496Y-66798819D02*
X158926258Y-66798819D01*
X158926258Y-66798819D02*
X158831020Y-66751200D01*
X158831020Y-66751200D02*
X158783401Y-66703580D01*
X158783401Y-66703580D02*
X158735782Y-66608342D01*
X158735782Y-66608342D02*
X158688163Y-66417866D01*
X158688163Y-66417866D02*
X158688163Y-66179771D01*
X158688163Y-66179771D02*
X158735782Y-65989295D01*
X158735782Y-65989295D02*
X158783401Y-65894057D01*
X158783401Y-65894057D02*
X158831020Y-65846438D01*
X158831020Y-65846438D02*
X158926258Y-65798819D01*
D13*
X111077666Y-58571985D02*
X111077666Y-59291652D01*
X111077666Y-59291652D02*
X111120000Y-59376318D01*
X111120000Y-59376318D02*
X111162333Y-59418652D01*
X111162333Y-59418652D02*
X111247000Y-59460985D01*
X111247000Y-59460985D02*
X111416333Y-59460985D01*
X111416333Y-59460985D02*
X111501000Y-59418652D01*
X111501000Y-59418652D02*
X111543333Y-59376318D01*
X111543333Y-59376318D02*
X111585666Y-59291652D01*
X111585666Y-59291652D02*
X111585666Y-58571985D01*
X112474666Y-59460985D02*
X111966666Y-59460985D01*
X112220666Y-59460985D02*
X112220666Y-58571985D01*
X112220666Y-58571985D02*
X112135999Y-58698985D01*
X112135999Y-58698985D02*
X112051333Y-58783652D01*
X112051333Y-58783652D02*
X111966666Y-58825985D01*
D12*
X106993095Y-55422200D02*
X107135952Y-55469819D01*
X107135952Y-55469819D02*
X107374047Y-55469819D01*
X107374047Y-55469819D02*
X107469285Y-55422200D01*
X107469285Y-55422200D02*
X107516904Y-55374580D01*
X107516904Y-55374580D02*
X107564523Y-55279342D01*
X107564523Y-55279342D02*
X107564523Y-55184104D01*
X107564523Y-55184104D02*
X107516904Y-55088866D01*
X107516904Y-55088866D02*
X107469285Y-55041247D01*
X107469285Y-55041247D02*
X107374047Y-54993628D01*
X107374047Y-54993628D02*
X107183571Y-54946009D01*
X107183571Y-54946009D02*
X107088333Y-54898390D01*
X107088333Y-54898390D02*
X107040714Y-54850771D01*
X107040714Y-54850771D02*
X106993095Y-54755533D01*
X106993095Y-54755533D02*
X106993095Y-54660295D01*
X106993095Y-54660295D02*
X107040714Y-54565057D01*
X107040714Y-54565057D02*
X107088333Y-54517438D01*
X107088333Y-54517438D02*
X107183571Y-54469819D01*
X107183571Y-54469819D02*
X107421666Y-54469819D01*
X107421666Y-54469819D02*
X107564523Y-54517438D01*
X108374047Y-55422200D02*
X108278809Y-55469819D01*
X108278809Y-55469819D02*
X108088333Y-55469819D01*
X108088333Y-55469819D02*
X107993095Y-55422200D01*
X107993095Y-55422200D02*
X107945476Y-55326961D01*
X107945476Y-55326961D02*
X107945476Y-54946009D01*
X107945476Y-54946009D02*
X107993095Y-54850771D01*
X107993095Y-54850771D02*
X108088333Y-54803152D01*
X108088333Y-54803152D02*
X108278809Y-54803152D01*
X108278809Y-54803152D02*
X108374047Y-54850771D01*
X108374047Y-54850771D02*
X108421666Y-54946009D01*
X108421666Y-54946009D02*
X108421666Y-55041247D01*
X108421666Y-55041247D02*
X107945476Y-55136485D01*
X109231190Y-55422200D02*
X109135952Y-55469819D01*
X109135952Y-55469819D02*
X108945476Y-55469819D01*
X108945476Y-55469819D02*
X108850238Y-55422200D01*
X108850238Y-55422200D02*
X108802619Y-55326961D01*
X108802619Y-55326961D02*
X108802619Y-54946009D01*
X108802619Y-54946009D02*
X108850238Y-54850771D01*
X108850238Y-54850771D02*
X108945476Y-54803152D01*
X108945476Y-54803152D02*
X109135952Y-54803152D01*
X109135952Y-54803152D02*
X109231190Y-54850771D01*
X109231190Y-54850771D02*
X109278809Y-54946009D01*
X109278809Y-54946009D02*
X109278809Y-55041247D01*
X109278809Y-55041247D02*
X108802619Y-55136485D01*
X110088333Y-55422200D02*
X109993095Y-55469819D01*
X109993095Y-55469819D02*
X109802619Y-55469819D01*
X109802619Y-55469819D02*
X109707381Y-55422200D01*
X109707381Y-55422200D02*
X109659762Y-55326961D01*
X109659762Y-55326961D02*
X109659762Y-54946009D01*
X109659762Y-54946009D02*
X109707381Y-54850771D01*
X109707381Y-54850771D02*
X109802619Y-54803152D01*
X109802619Y-54803152D02*
X109993095Y-54803152D01*
X109993095Y-54803152D02*
X110088333Y-54850771D01*
X110088333Y-54850771D02*
X110135952Y-54946009D01*
X110135952Y-54946009D02*
X110135952Y-55041247D01*
X110135952Y-55041247D02*
X109659762Y-55136485D01*
X110993095Y-55469819D02*
X110993095Y-54469819D01*
X110993095Y-55422200D02*
X110897857Y-55469819D01*
X110897857Y-55469819D02*
X110707381Y-55469819D01*
X110707381Y-55469819D02*
X110612143Y-55422200D01*
X110612143Y-55422200D02*
X110564524Y-55374580D01*
X110564524Y-55374580D02*
X110516905Y-55279342D01*
X110516905Y-55279342D02*
X110516905Y-54993628D01*
X110516905Y-54993628D02*
X110564524Y-54898390D01*
X110564524Y-54898390D02*
X110612143Y-54850771D01*
X110612143Y-54850771D02*
X110707381Y-54803152D01*
X110707381Y-54803152D02*
X110897857Y-54803152D01*
X110897857Y-54803152D02*
X110993095Y-54850771D01*
X112183572Y-55422200D02*
X112326429Y-55469819D01*
X112326429Y-55469819D02*
X112564524Y-55469819D01*
X112564524Y-55469819D02*
X112659762Y-55422200D01*
X112659762Y-55422200D02*
X112707381Y-55374580D01*
X112707381Y-55374580D02*
X112755000Y-55279342D01*
X112755000Y-55279342D02*
X112755000Y-55184104D01*
X112755000Y-55184104D02*
X112707381Y-55088866D01*
X112707381Y-55088866D02*
X112659762Y-55041247D01*
X112659762Y-55041247D02*
X112564524Y-54993628D01*
X112564524Y-54993628D02*
X112374048Y-54946009D01*
X112374048Y-54946009D02*
X112278810Y-54898390D01*
X112278810Y-54898390D02*
X112231191Y-54850771D01*
X112231191Y-54850771D02*
X112183572Y-54755533D01*
X112183572Y-54755533D02*
X112183572Y-54660295D01*
X112183572Y-54660295D02*
X112231191Y-54565057D01*
X112231191Y-54565057D02*
X112278810Y-54517438D01*
X112278810Y-54517438D02*
X112374048Y-54469819D01*
X112374048Y-54469819D02*
X112612143Y-54469819D01*
X112612143Y-54469819D02*
X112755000Y-54517438D01*
X113040715Y-54803152D02*
X113421667Y-54803152D01*
X113183572Y-54469819D02*
X113183572Y-55326961D01*
X113183572Y-55326961D02*
X113231191Y-55422200D01*
X113231191Y-55422200D02*
X113326429Y-55469819D01*
X113326429Y-55469819D02*
X113421667Y-55469819D01*
X114183572Y-54803152D02*
X114183572Y-55469819D01*
X113755001Y-54803152D02*
X113755001Y-55326961D01*
X113755001Y-55326961D02*
X113802620Y-55422200D01*
X113802620Y-55422200D02*
X113897858Y-55469819D01*
X113897858Y-55469819D02*
X114040715Y-55469819D01*
X114040715Y-55469819D02*
X114135953Y-55422200D01*
X114135953Y-55422200D02*
X114183572Y-55374580D01*
X115088334Y-55469819D02*
X115088334Y-54469819D01*
X115088334Y-55422200D02*
X114993096Y-55469819D01*
X114993096Y-55469819D02*
X114802620Y-55469819D01*
X114802620Y-55469819D02*
X114707382Y-55422200D01*
X114707382Y-55422200D02*
X114659763Y-55374580D01*
X114659763Y-55374580D02*
X114612144Y-55279342D01*
X114612144Y-55279342D02*
X114612144Y-54993628D01*
X114612144Y-54993628D02*
X114659763Y-54898390D01*
X114659763Y-54898390D02*
X114707382Y-54850771D01*
X114707382Y-54850771D02*
X114802620Y-54803152D01*
X114802620Y-54803152D02*
X114993096Y-54803152D01*
X114993096Y-54803152D02*
X115088334Y-54850771D01*
X115564525Y-55469819D02*
X115564525Y-54803152D01*
X115564525Y-54469819D02*
X115516906Y-54517438D01*
X115516906Y-54517438D02*
X115564525Y-54565057D01*
X115564525Y-54565057D02*
X115612144Y-54517438D01*
X115612144Y-54517438D02*
X115564525Y-54469819D01*
X115564525Y-54469819D02*
X115564525Y-54565057D01*
X116183572Y-55469819D02*
X116088334Y-55422200D01*
X116088334Y-55422200D02*
X116040715Y-55374580D01*
X116040715Y-55374580D02*
X115993096Y-55279342D01*
X115993096Y-55279342D02*
X115993096Y-54993628D01*
X115993096Y-54993628D02*
X116040715Y-54898390D01*
X116040715Y-54898390D02*
X116088334Y-54850771D01*
X116088334Y-54850771D02*
X116183572Y-54803152D01*
X116183572Y-54803152D02*
X116326429Y-54803152D01*
X116326429Y-54803152D02*
X116421667Y-54850771D01*
X116421667Y-54850771D02*
X116469286Y-54898390D01*
X116469286Y-54898390D02*
X116516905Y-54993628D01*
X116516905Y-54993628D02*
X116516905Y-55279342D01*
X116516905Y-55279342D02*
X116469286Y-55374580D01*
X116469286Y-55374580D02*
X116421667Y-55422200D01*
X116421667Y-55422200D02*
X116326429Y-55469819D01*
X116326429Y-55469819D02*
X116183572Y-55469819D01*
X110231191Y-56469819D02*
X110897857Y-57469819D01*
X110897857Y-56469819D02*
X110231191Y-57469819D01*
X111278810Y-57469819D02*
X111278810Y-56469819D01*
X111707381Y-57184104D02*
X112183571Y-57184104D01*
X111612143Y-57469819D02*
X111945476Y-56469819D01*
X111945476Y-56469819D02*
X112278809Y-57469819D01*
X112802619Y-56469819D02*
X112993095Y-56469819D01*
X112993095Y-56469819D02*
X113088333Y-56517438D01*
X113088333Y-56517438D02*
X113183571Y-56612676D01*
X113183571Y-56612676D02*
X113231190Y-56803152D01*
X113231190Y-56803152D02*
X113231190Y-57136485D01*
X113231190Y-57136485D02*
X113183571Y-57326961D01*
X113183571Y-57326961D02*
X113088333Y-57422200D01*
X113088333Y-57422200D02*
X112993095Y-57469819D01*
X112993095Y-57469819D02*
X112802619Y-57469819D01*
X112802619Y-57469819D02*
X112707381Y-57422200D01*
X112707381Y-57422200D02*
X112612143Y-57326961D01*
X112612143Y-57326961D02*
X112564524Y-57136485D01*
X112564524Y-57136485D02*
X112564524Y-56803152D01*
X112564524Y-56803152D02*
X112612143Y-56612676D01*
X112612143Y-56612676D02*
X112707381Y-56517438D01*
X112707381Y-56517438D02*
X112802619Y-56469819D01*
X130746667Y-50953200D02*
X130889524Y-51000819D01*
X130889524Y-51000819D02*
X131127619Y-51000819D01*
X131127619Y-51000819D02*
X131222857Y-50953200D01*
X131222857Y-50953200D02*
X131270476Y-50905580D01*
X131270476Y-50905580D02*
X131318095Y-50810342D01*
X131318095Y-50810342D02*
X131318095Y-50715104D01*
X131318095Y-50715104D02*
X131270476Y-50619866D01*
X131270476Y-50619866D02*
X131222857Y-50572247D01*
X131222857Y-50572247D02*
X131127619Y-50524628D01*
X131127619Y-50524628D02*
X130937143Y-50477009D01*
X130937143Y-50477009D02*
X130841905Y-50429390D01*
X130841905Y-50429390D02*
X130794286Y-50381771D01*
X130794286Y-50381771D02*
X130746667Y-50286533D01*
X130746667Y-50286533D02*
X130746667Y-50191295D01*
X130746667Y-50191295D02*
X130794286Y-50096057D01*
X130794286Y-50096057D02*
X130841905Y-50048438D01*
X130841905Y-50048438D02*
X130937143Y-50000819D01*
X130937143Y-50000819D02*
X131175238Y-50000819D01*
X131175238Y-50000819D02*
X131318095Y-50048438D01*
X131651429Y-50000819D02*
X131889524Y-51000819D01*
X131889524Y-51000819D02*
X132080000Y-50286533D01*
X132080000Y-50286533D02*
X132270476Y-51000819D01*
X132270476Y-51000819D02*
X132508572Y-50000819D01*
X133318095Y-50334152D02*
X133318095Y-51000819D01*
X133080000Y-49953200D02*
X132841905Y-50667485D01*
X132841905Y-50667485D02*
X133460952Y-50667485D01*
X130746667Y-70003200D02*
X130889524Y-70050819D01*
X130889524Y-70050819D02*
X131127619Y-70050819D01*
X131127619Y-70050819D02*
X131222857Y-70003200D01*
X131222857Y-70003200D02*
X131270476Y-69955580D01*
X131270476Y-69955580D02*
X131318095Y-69860342D01*
X131318095Y-69860342D02*
X131318095Y-69765104D01*
X131318095Y-69765104D02*
X131270476Y-69669866D01*
X131270476Y-69669866D02*
X131222857Y-69622247D01*
X131222857Y-69622247D02*
X131127619Y-69574628D01*
X131127619Y-69574628D02*
X130937143Y-69527009D01*
X130937143Y-69527009D02*
X130841905Y-69479390D01*
X130841905Y-69479390D02*
X130794286Y-69431771D01*
X130794286Y-69431771D02*
X130746667Y-69336533D01*
X130746667Y-69336533D02*
X130746667Y-69241295D01*
X130746667Y-69241295D02*
X130794286Y-69146057D01*
X130794286Y-69146057D02*
X130841905Y-69098438D01*
X130841905Y-69098438D02*
X130937143Y-69050819D01*
X130937143Y-69050819D02*
X131175238Y-69050819D01*
X131175238Y-69050819D02*
X131318095Y-69098438D01*
X131651429Y-69050819D02*
X131889524Y-70050819D01*
X131889524Y-70050819D02*
X132080000Y-69336533D01*
X132080000Y-69336533D02*
X132270476Y-70050819D01*
X132270476Y-70050819D02*
X132508572Y-69050819D01*
X132841905Y-69146057D02*
X132889524Y-69098438D01*
X132889524Y-69098438D02*
X132984762Y-69050819D01*
X132984762Y-69050819D02*
X133222857Y-69050819D01*
X133222857Y-69050819D02*
X133318095Y-69098438D01*
X133318095Y-69098438D02*
X133365714Y-69146057D01*
X133365714Y-69146057D02*
X133413333Y-69241295D01*
X133413333Y-69241295D02*
X133413333Y-69336533D01*
X133413333Y-69336533D02*
X133365714Y-69479390D01*
X133365714Y-69479390D02*
X132794286Y-70050819D01*
X132794286Y-70050819D02*
X133413333Y-70050819D01*
X149796667Y-70003200D02*
X149939524Y-70050819D01*
X149939524Y-70050819D02*
X150177619Y-70050819D01*
X150177619Y-70050819D02*
X150272857Y-70003200D01*
X150272857Y-70003200D02*
X150320476Y-69955580D01*
X150320476Y-69955580D02*
X150368095Y-69860342D01*
X150368095Y-69860342D02*
X150368095Y-69765104D01*
X150368095Y-69765104D02*
X150320476Y-69669866D01*
X150320476Y-69669866D02*
X150272857Y-69622247D01*
X150272857Y-69622247D02*
X150177619Y-69574628D01*
X150177619Y-69574628D02*
X149987143Y-69527009D01*
X149987143Y-69527009D02*
X149891905Y-69479390D01*
X149891905Y-69479390D02*
X149844286Y-69431771D01*
X149844286Y-69431771D02*
X149796667Y-69336533D01*
X149796667Y-69336533D02*
X149796667Y-69241295D01*
X149796667Y-69241295D02*
X149844286Y-69146057D01*
X149844286Y-69146057D02*
X149891905Y-69098438D01*
X149891905Y-69098438D02*
X149987143Y-69050819D01*
X149987143Y-69050819D02*
X150225238Y-69050819D01*
X150225238Y-69050819D02*
X150368095Y-69098438D01*
X150701429Y-69050819D02*
X150939524Y-70050819D01*
X150939524Y-70050819D02*
X151130000Y-69336533D01*
X151130000Y-69336533D02*
X151320476Y-70050819D01*
X151320476Y-70050819D02*
X151558572Y-69050819D01*
X151844286Y-69050819D02*
X152463333Y-69050819D01*
X152463333Y-69050819D02*
X152130000Y-69431771D01*
X152130000Y-69431771D02*
X152272857Y-69431771D01*
X152272857Y-69431771D02*
X152368095Y-69479390D01*
X152368095Y-69479390D02*
X152415714Y-69527009D01*
X152415714Y-69527009D02*
X152463333Y-69622247D01*
X152463333Y-69622247D02*
X152463333Y-69860342D01*
X152463333Y-69860342D02*
X152415714Y-69955580D01*
X152415714Y-69955580D02*
X152368095Y-70003200D01*
X152368095Y-70003200D02*
X152272857Y-70050819D01*
X152272857Y-70050819D02*
X151987143Y-70050819D01*
X151987143Y-70050819D02*
X151891905Y-70003200D01*
X151891905Y-70003200D02*
X151844286Y-69955580D01*
X111696667Y-70003200D02*
X111839524Y-70050819D01*
X111839524Y-70050819D02*
X112077619Y-70050819D01*
X112077619Y-70050819D02*
X112172857Y-70003200D01*
X112172857Y-70003200D02*
X112220476Y-69955580D01*
X112220476Y-69955580D02*
X112268095Y-69860342D01*
X112268095Y-69860342D02*
X112268095Y-69765104D01*
X112268095Y-69765104D02*
X112220476Y-69669866D01*
X112220476Y-69669866D02*
X112172857Y-69622247D01*
X112172857Y-69622247D02*
X112077619Y-69574628D01*
X112077619Y-69574628D02*
X111887143Y-69527009D01*
X111887143Y-69527009D02*
X111791905Y-69479390D01*
X111791905Y-69479390D02*
X111744286Y-69431771D01*
X111744286Y-69431771D02*
X111696667Y-69336533D01*
X111696667Y-69336533D02*
X111696667Y-69241295D01*
X111696667Y-69241295D02*
X111744286Y-69146057D01*
X111744286Y-69146057D02*
X111791905Y-69098438D01*
X111791905Y-69098438D02*
X111887143Y-69050819D01*
X111887143Y-69050819D02*
X112125238Y-69050819D01*
X112125238Y-69050819D02*
X112268095Y-69098438D01*
X112601429Y-69050819D02*
X112839524Y-70050819D01*
X112839524Y-70050819D02*
X113030000Y-69336533D01*
X113030000Y-69336533D02*
X113220476Y-70050819D01*
X113220476Y-70050819D02*
X113458572Y-69050819D01*
X114363333Y-70050819D02*
X113791905Y-70050819D01*
X114077619Y-70050819D02*
X114077619Y-69050819D01*
X114077619Y-69050819D02*
X113982381Y-69193676D01*
X113982381Y-69193676D02*
X113887143Y-69288914D01*
X113887143Y-69288914D02*
X113791905Y-69336533D01*
%TO.C,U1*%
D14*
X102855000Y-48015000D02*
X102855000Y-65015000D01*
X104855000Y-67015000D02*
X118655000Y-67015000D01*
X107255000Y-44590970D02*
X116255000Y-44590970D01*
X107255000Y-51944270D02*
X107255000Y-44590970D01*
X116255000Y-44590970D02*
X116255000Y-51944270D01*
X116255000Y-51944270D02*
X107255000Y-51944270D01*
X118655000Y-46015910D02*
X104855000Y-46015910D01*
X120655000Y-65015000D02*
X120655000Y-48015000D01*
D15*
X102855000Y-48015000D02*
G75*
G02*
X104855000Y-46015000I2044612J-44612D01*
G01*
X104855000Y-67015000D02*
G75*
G02*
X102855000Y-65015000I44857J2044857D01*
G01*
X118655000Y-46015000D02*
G75*
G02*
X120655000Y-48015000I-44610J-2044610D01*
G01*
X120655000Y-65015000D02*
G75*
G02*
X118655000Y-67015000I-2000000J0D01*
G01*
D16*
X100882000Y-47715000D02*
G75*
G02*
X100628000Y-47715000I-127000J0D01*
G01*
X100628000Y-47715000D02*
G75*
G02*
X100882000Y-47715000I127000J0D01*
G01*
D17*
X102867285Y-47953295D02*
X102870333Y-47904527D01*
X102874397Y-47855506D01*
X102867285Y-47953295D01*
X120644492Y-65036574D02*
X120642713Y-65085850D01*
X120639665Y-65134618D01*
X120635601Y-65183639D01*
X120630268Y-65232407D01*
X120623664Y-65281175D01*
X120616044Y-65329690D01*
X120607153Y-65377950D01*
X120597248Y-65425955D01*
X120644492Y-65036574D01*
%TO.C,SW4*%
D15*
X125095000Y-51435000D02*
X139065000Y-51435000D01*
X125095000Y-65405000D02*
X125095000Y-51435000D01*
X139065000Y-51435000D02*
X139065000Y-65405000D01*
X139065000Y-65405000D02*
X125095000Y-65405000D01*
%TO.C,SW2*%
X125095000Y-70485000D02*
X139065000Y-70485000D01*
X125095000Y-84455000D02*
X125095000Y-70485000D01*
X139065000Y-70485000D02*
X139065000Y-84455000D01*
X139065000Y-84455000D02*
X125095000Y-84455000D01*
%TO.C,SW3*%
X144145000Y-70485000D02*
X158115000Y-70485000D01*
X144145000Y-84455000D02*
X144145000Y-70485000D01*
X158115000Y-70485000D02*
X158115000Y-84455000D01*
X158115000Y-84455000D02*
X144145000Y-84455000D01*
%TO.C,SW1*%
X106045000Y-70485000D02*
X120015000Y-70485000D01*
X106045000Y-84455000D02*
X106045000Y-70485000D01*
X120015000Y-70485000D02*
X120015000Y-84455000D01*
X120015000Y-84455000D02*
X106045000Y-84455000D01*
%TD*%
M02*
