%TF.GenerationSoftware,KiCad,Pcbnew,10.0.4*%
%TF.CreationDate,2026-07-25T14:44:29-07:00*%
%TF.ProjectId,hackPad,6861636b-5061-4642-9e6b-696361645f70,rev?*%
%TF.SameCoordinates,Original*%
%TF.FileFunction,Copper,L1,Top*%
%TF.FilePolarity,Positive*%
%FSLAX46Y46*%
G04 Gerber Fmt 4.6, Leading zero omitted, Abs format (unit mm)*
G04 Created by KiCad (PCBNEW 10.0.4) date 2026-07-25 14:44:29*
%MOMM*%
%LPD*%
G01*
G04 APERTURE LIST*
%TA.AperFunction,ComponentPad*%
%ADD10R,3.500000X1.700000*%
%TD*%
%TA.AperFunction,ComponentPad*%
%ADD11O,3.600000X1.700000*%
%TD*%
%TA.AperFunction,ComponentPad*%
%ADD12O,3.700000X1.700000*%
%TD*%
%TA.AperFunction,ComponentPad*%
%ADD13C,2.200000*%
%TD*%
%TA.AperFunction,Conductor*%
%ADD14C,0.200000*%
%TD*%
G04 APERTURE END LIST*
D10*
%TO.P,U1,1,PA02_A0_D0_1*%
%TO.N,unconnected-(U1-PA02_A0_D0-Pad1)*%
X103130000Y-48895000D03*
D11*
%TO.P,U1,2,PA4_A1_D1_2*%
%TO.N,unconnected-(U1-PA4_A1_D1-Pad2)*%
X103130000Y-51435000D03*
%TO.P,U1,3,PA10_A2_D2_3*%
%TO.N,unconnected-(U1-PA10_A2_D2-Pad3)*%
X103130000Y-53975000D03*
%TO.P,U1,4,PA11_A3_D3_4*%
%TO.N,unconnected-(U1-PA11_A3_D3-Pad4)*%
X103130000Y-56515000D03*
%TO.P,U1,5,PA8_A4_D4_SDA_5*%
%TO.N,unconnected-(U1-PA8_A4_D4_SDA-Pad5)*%
X103130000Y-59055000D03*
%TO.P,U1,6,PA9_A5_D5_SCL_6*%
%TO.N,unconnected-(U1-PA9_A5_D5_SCL-Pad6)*%
X103130000Y-61595000D03*
%TO.P,U1,7,PB08_A6_D6_TX_7*%
%TO.N,unconnected-(U1-PB08_A6_D6_TX-Pad7)*%
X103130000Y-64135000D03*
%TO.P,U1,8,PB09_A7_D7_RX_8*%
%TO.N,Net-(U1-PB09_A7_D7_RX)*%
X120380000Y-64135000D03*
%TO.P,U1,9,PA7_A8_D8_SCK_9*%
%TO.N,Net-(U1-PA7_A8_D8_SCK)*%
X120380000Y-61595000D03*
%TO.P,U1,10,PA5_A9_D9_MISO_10*%
%TO.N,Net-(U1-PA5_A9_D9_MISO)*%
X120380000Y-59055000D03*
D12*
%TO.P,U1,11,PA6_A10_D10_MOSI_11*%
%TO.N,Net-(U1-PA6_A10_D10_MOSI)*%
X120380000Y-56515000D03*
%TO.P,U1,12,3V3_12*%
%TO.N,unconnected-(U1-3V3-Pad12)*%
X120380000Y-53975000D03*
%TO.P,U1,13,GND_13*%
%TO.N,GND*%
X120380000Y-51435000D03*
%TO.P,U1,14,5V_14*%
%TO.N,unconnected-(U1-5V-Pad14)*%
X120380000Y-48895000D03*
%TD*%
D13*
%TO.P,SW4,1,1_1*%
%TO.N,Net-(U1-PB09_A7_D7_RX)*%
X134620000Y-53340000D03*
%TO.P,SW4,2,2_2*%
%TO.N,GND*%
X128270000Y-55880000D03*
%TD*%
%TO.P,SW2,1,1_1*%
%TO.N,Net-(U1-PA5_A9_D9_MISO)*%
X134620000Y-72390000D03*
%TO.P,SW2,2,2_2*%
%TO.N,GND*%
X128270000Y-74930000D03*
%TD*%
%TO.P,SW3,1,1_1*%
%TO.N,Net-(U1-PA7_A8_D8_SCK)*%
X153670000Y-72390000D03*
%TO.P,SW3,2,2_2*%
%TO.N,GND*%
X147320000Y-74930000D03*
%TD*%
%TO.P,SW1,1,1_1*%
%TO.N,Net-(U1-PA6_A10_D10_MOSI)*%
X115570000Y-72390000D03*
%TO.P,SW1,2,2_2*%
%TO.N,GND*%
X109220000Y-74930000D03*
%TD*%
%TO.N,Net-(U1-PB09_A7_D7_RX)*%
D14*
X122982056Y-64135000D02*
X119380000Y-64135000D01*
X134620000Y-53340000D02*
X133777056Y-53340000D01*
X133777056Y-53340000D02*
X122982056Y-64135000D01*
%TO.N,Net-(U1-PA7_A8_D8_SCK)*%
X153670000Y-72390000D02*
X153670000Y-66929000D01*
X123190000Y-57868654D02*
X123190000Y-62484000D01*
X153670000Y-66929000D02*
X136779000Y-50038000D01*
X123190000Y-62484000D02*
X120269000Y-62484000D01*
X131020654Y-50038000D02*
X123190000Y-57868654D01*
X136779000Y-50038000D02*
X131020654Y-50038000D01*
X120269000Y-62484000D02*
X119380000Y-61595000D01*
%TO.N,Net-(U1-PA5_A9_D9_MISO)*%
X118280000Y-60155000D02*
X119380000Y-59055000D01*
X118280000Y-64611346D02*
X118280000Y-60155000D01*
X134620000Y-72390000D02*
X126058654Y-72390000D01*
X126058654Y-72390000D02*
X118280000Y-64611346D01*
%TO.N,Net-(U1-PA6_A10_D10_MOSI)*%
X115570000Y-60325000D02*
X119380000Y-56515000D01*
X115570000Y-72390000D02*
X115570000Y-60325000D01*
%TD*%
M02*
